<svg xmlns="http://www.w3.org/2000/svg" xmlns:xlink="http://www.w3.org/1999/xlink" width="103" height="107" viewBox="0 0 103 107">
    <defs>
        <path id="3kqkd6rq1a" d="M0 0L97.168 0 97.168 97.168 0 97.168z"/>
    </defs>
    <g fill="none" fill-rule="evenodd">
        <g>
            <g>
                <g>
                    <g transform="translate(-155 -341) translate(181.5 363) translate(-26.343 -21.668)">
                        <mask id="k1lld1714b" fill="#fff">
                            <use xlink:href="#3kqkd6rq1a"/>
                        </mask>
                        <circle cx=".682" cy=".682" r="1" fill="#000638" mask="url(#k1lld1714b)"/>
                        <circle cx=".682" cy="7.16" r="1" fill="#000638" mask="url(#k1lld1714b)"/>
                        <circle cx=".682" cy="13.638" r="1" fill="#000638" mask="url(#k1lld1714b)"/>
                        <circle cx=".682" cy="20.115" r="1" fill="#000638" mask="url(#k1lld1714b)"/>
                        <circle cx=".682" cy="26.593" r="1" fill="#000638" mask="url(#k1lld1714b)"/>
                        <circle cx=".682" cy="33.071" r="1" fill="#000638" mask="url(#k1lld1714b)"/>
                        <circle cx=".682" cy="39.549" r="1" fill="#000638" mask="url(#k1lld1714b)"/>
                        <circle cx=".682" cy="46.027" r="1" fill="#000638" mask="url(#k1lld1714b)"/>
                        <circle cx=".682" cy="52.505" r="1" fill="#000638" mask="url(#k1lld1714b)"/>
                        <circle cx=".682" cy="58.983" r="1" fill="#000638" mask="url(#k1lld1714b)"/>
                        <circle cx=".682" cy="65.461" r="1" fill="#000638" mask="url(#k1lld1714b)"/>
                        <circle cx=".682" cy="71.938" r="1" fill="#000638" mask="url(#k1lld1714b)"/>
                        <circle cx=".682" cy="78.416" r="1" fill="#000638" mask="url(#k1lld1714b)"/>
                        <circle cx=".682" cy="84.894" r="1" fill="#000638" mask="url(#k1lld1714b)"/>
                        <circle cx=".682" cy="91.372" r="1" fill="#000638" mask="url(#k1lld1714b)"/>
                        <circle cx="7.16" cy=".682" r="1" fill="#000638" mask="url(#k1lld1714b)"/>
                        <circle cx="7.16" cy="7.16" r="1" fill="#000638" mask="url(#k1lld1714b)"/>
                        <circle cx="7.16" cy="13.638" r="1" fill="#000638" mask="url(#k1lld1714b)"/>
                        <circle cx="7.16" cy="20.115" r="1" fill="#000638" mask="url(#k1lld1714b)"/>
                        <circle cx="7.16" cy="26.593" r="1" fill="#000638" mask="url(#k1lld1714b)"/>
                        <circle cx="7.16" cy="33.071" r="1" fill="#000638" mask="url(#k1lld1714b)"/>
                        <circle cx="7.16" cy="39.549" r="1" fill="#000638" mask="url(#k1lld1714b)"/>
                        <circle cx="7.16" cy="46.027" r="1" fill="#000638" mask="url(#k1lld1714b)"/>
                        <circle cx="7.16" cy="52.505" r="1" fill="#000638" mask="url(#k1lld1714b)"/>
                        <circle cx="7.16" cy="58.983" r="1" fill="#000638" mask="url(#k1lld1714b)"/>
                        <circle cx="7.16" cy="65.461" r="1" fill="#000638" mask="url(#k1lld1714b)"/>
                        <circle cx="7.16" cy="71.938" r="1" fill="#000638" mask="url(#k1lld1714b)"/>
                        <circle cx="7.16" cy="78.416" r="1" fill="#000638" mask="url(#k1lld1714b)"/>
                        <circle cx="7.16" cy="84.894" r="1" fill="#000638" mask="url(#k1lld1714b)"/>
                        <circle cx="7.16" cy="91.372" r="1" fill="#000638" mask="url(#k1lld1714b)"/>
                        <circle cx="13.638" cy=".682" r="1" fill="#000638" mask="url(#k1lld1714b)"/>
                        <circle cx="13.638" cy="7.16" r="1" fill="#000638" mask="url(#k1lld1714b)"/>
                        <circle cx="13.638" cy="13.638" r="1" fill="#000638" mask="url(#k1lld1714b)"/>
                        <circle cx="13.638" cy="20.115" r="1" fill="#000638" mask="url(#k1lld1714b)"/>
                        <circle cx="13.638" cy="26.593" r="1" fill="#000638" mask="url(#k1lld1714b)"/>
                        <circle cx="13.638" cy="33.071" r="1" fill="#000638" mask="url(#k1lld1714b)"/>
                        <circle cx="13.638" cy="39.549" r="1" fill="#000638" mask="url(#k1lld1714b)"/>
                        <circle cx="13.638" cy="46.027" r="1" fill="#000638" mask="url(#k1lld1714b)"/>
                        <circle cx="13.638" cy="52.505" r="1" fill="#000638" mask="url(#k1lld1714b)"/>
                        <circle cx="13.638" cy="58.983" r="1" fill="#000638" mask="url(#k1lld1714b)"/>
                        <circle cx="13.638" cy="65.461" r="1" fill="#000638" mask="url(#k1lld1714b)"/>
                        <circle cx="13.638" cy="71.938" r="1" fill="#000638" mask="url(#k1lld1714b)"/>
                        <circle cx="13.638" cy="78.416" r="1" fill="#000638" mask="url(#k1lld1714b)"/>
                        <circle cx="13.638" cy="84.894" r="1" fill="#000638" mask="url(#k1lld1714b)"/>
                        <circle cx="13.638" cy="91.372" r="1" fill="#000638" mask="url(#k1lld1714b)"/>
                        <circle cx="20.115" cy=".682" r="1" fill="#000638" mask="url(#k1lld1714b)"/>
                        <circle cx="20.115" cy="7.16" r="1" fill="#000638" mask="url(#k1lld1714b)"/>
                        <circle cx="20.115" cy="13.638" r="1" fill="#000638" mask="url(#k1lld1714b)"/>
                        <circle cx="20.115" cy="20.115" r="1" fill="#000638" mask="url(#k1lld1714b)"/>
                        <circle cx="20.115" cy="26.593" r="1" fill="#000638" mask="url(#k1lld1714b)"/>
                        <circle cx="20.115" cy="33.071" r="1" fill="#000638" mask="url(#k1lld1714b)"/>
                        <circle cx="20.115" cy="39.549" r="1" fill="#000638" mask="url(#k1lld1714b)"/>
                        <circle cx="20.115" cy="46.027" r="1" fill="#000638" mask="url(#k1lld1714b)"/>
                        <circle cx="20.115" cy="52.505" r="1" fill="#000638" mask="url(#k1lld1714b)"/>
                        <circle cx="20.115" cy="58.983" r="1" fill="#000638" mask="url(#k1lld1714b)"/>
                        <circle cx="20.115" cy="65.461" r="1" fill="#000638" mask="url(#k1lld1714b)"/>
                        <circle cx="20.115" cy="71.938" r="1" fill="#000638" mask="url(#k1lld1714b)"/>
                        <circle cx="20.115" cy="78.416" r="1" fill="#000638" mask="url(#k1lld1714b)"/>
                        <circle cx="20.115" cy="84.894" r="1" fill="#000638" mask="url(#k1lld1714b)"/>
                        <circle cx="20.115" cy="91.372" r="1" fill="#000638" mask="url(#k1lld1714b)"/>
                        <circle cx="26.593" cy=".682" r="1" fill="#000638" mask="url(#k1lld1714b)"/>
                        <circle cx="26.593" cy="7.16" r="1" fill="#000638" mask="url(#k1lld1714b)"/>
                        <circle cx="26.593" cy="13.638" r="1" fill="#000638" mask="url(#k1lld1714b)"/>
                        <circle cx="26.593" cy="20.115" r="1" fill="#000638" mask="url(#k1lld1714b)"/>
                        <circle cx="26.593" cy="26.593" r="1" fill="#000638" mask="url(#k1lld1714b)"/>
                        <circle cx="26.593" cy="33.071" r="1" fill="#000638" mask="url(#k1lld1714b)"/>
                        <circle cx="26.593" cy="39.549" r="1" fill="#000638" mask="url(#k1lld1714b)"/>
                        <circle cx="26.593" cy="46.027" r="1" fill="#000638" mask="url(#k1lld1714b)"/>
                        <circle cx="26.593" cy="52.505" r="1" fill="#000638" mask="url(#k1lld1714b)"/>
                        <circle cx="26.593" cy="58.983" r="1" fill="#000638" mask="url(#k1lld1714b)"/>
                        <circle cx="26.593" cy="65.461" r="1" fill="#000638" mask="url(#k1lld1714b)"/>
                        <circle cx="26.593" cy="71.938" r="1" fill="#000638" mask="url(#k1lld1714b)"/>
                        <circle cx="26.593" cy="78.416" r="1" fill="#000638" mask="url(#k1lld1714b)"/>
                        <circle cx="26.593" cy="84.894" r="1" fill="#000638" mask="url(#k1lld1714b)"/>
                        <circle cx="26.593" cy="91.372" r="1" fill="#000638" mask="url(#k1lld1714b)"/>
                        <circle cx="33.071" cy=".682" r="1" fill="#000638" mask="url(#k1lld1714b)"/>
                        <circle cx="33.071" cy="7.16" r="1" fill="#000638" mask="url(#k1lld1714b)"/>
                        <circle cx="33.071" cy="13.638" r="1" fill="#000638" mask="url(#k1lld1714b)"/>
                        <circle cx="33.071" cy="20.115" r="1" fill="#000638" mask="url(#k1lld1714b)"/>
                        <circle cx="33.071" cy="26.593" r="1" fill="#000638" mask="url(#k1lld1714b)"/>
                        <circle cx="33.071" cy="33.071" r="1" fill="#000638" mask="url(#k1lld1714b)"/>
                        <circle cx="33.071" cy="39.549" r="1" fill="#000638" mask="url(#k1lld1714b)"/>
                        <circle cx="33.071" cy="46.027" r="1" fill="#000638" mask="url(#k1lld1714b)"/>
                        <circle cx="33.071" cy="52.505" r="1" fill="#000638" mask="url(#k1lld1714b)"/>
                        <circle cx="33.071" cy="58.983" r="1" fill="#000638" mask="url(#k1lld1714b)"/>
                        <circle cx="33.071" cy="65.461" r="1" fill="#000638" mask="url(#k1lld1714b)"/>
                        <circle cx="33.071" cy="71.938" r="1" fill="#000638" mask="url(#k1lld1714b)"/>
                        <circle cx="33.071" cy="78.416" r="1" fill="#000638" mask="url(#k1lld1714b)"/>
                        <circle cx="33.071" cy="84.894" r="1" fill="#000638" mask="url(#k1lld1714b)"/>
                        <circle cx="33.071" cy="91.372" r="1" fill="#000638" mask="url(#k1lld1714b)"/>
                        <circle cx="39.549" cy=".682" r="1" fill="#000638" mask="url(#k1lld1714b)"/>
                        <circle cx="39.549" cy="7.16" r="1" fill="#000638" mask="url(#k1lld1714b)"/>
                        <circle cx="39.549" cy="13.638" r="1" fill="#000638" mask="url(#k1lld1714b)"/>
                        <circle cx="39.549" cy="20.115" r="1" fill="#000638" mask="url(#k1lld1714b)"/>
                        <circle cx="39.549" cy="26.593" r="1" fill="#000638" mask="url(#k1lld1714b)"/>
                        <circle cx="39.549" cy="33.071" r="1" fill="#000638" mask="url(#k1lld1714b)"/>
                        <circle cx="39.549" cy="39.549" r="1" fill="#000638" mask="url(#k1lld1714b)"/>
                        <circle cx="39.549" cy="46.027" r="1" fill="#000638" mask="url(#k1lld1714b)"/>
                        <circle cx="39.549" cy="52.505" r="1" fill="#000638" mask="url(#k1lld1714b)"/>
                        <circle cx="39.549" cy="58.983" r="1" fill="#000638" mask="url(#k1lld1714b)"/>
                        <circle cx="39.549" cy="65.461" r="1" fill="#000638" mask="url(#k1lld1714b)"/>
                        <circle cx="39.549" cy="71.938" r="1" fill="#000638" mask="url(#k1lld1714b)"/>
                        <circle cx="39.549" cy="78.416" r="1" fill="#000638" mask="url(#k1lld1714b)"/>
                        <circle cx="39.549" cy="84.894" r="1" fill="#000638" mask="url(#k1lld1714b)"/>
                        <circle cx="39.549" cy="91.372" r="1" fill="#000638" mask="url(#k1lld1714b)"/>
                        <circle cx="46.027" cy=".682" r="1" fill="#000638" mask="url(#k1lld1714b)"/>
                        <circle cx="46.027" cy="7.16" r="1" fill="#000638" mask="url(#k1lld1714b)"/>
                        <circle cx="46.027" cy="13.638" r="1" fill="#000638" mask="url(#k1lld1714b)"/>
                        <circle cx="46.027" cy="20.115" r="1" fill="#000638" mask="url(#k1lld1714b)"/>
                        <circle cx="46.027" cy="26.593" r="1" fill="#000638" mask="url(#k1lld1714b)"/>
                        <circle cx="46.027" cy="33.071" r="1" fill="#000638" mask="url(#k1lld1714b)"/>
                        <circle cx="46.027" cy="39.549" r="1" fill="#000638" mask="url(#k1lld1714b)"/>
                        <circle cx="46.027" cy="46.027" r="1" fill="#000638" mask="url(#k1lld1714b)"/>
                        <circle cx="46.027" cy="52.505" r="1" fill="#000638" mask="url(#k1lld1714b)"/>
                        <circle cx="46.027" cy="58.983" r="1" fill="#000638" mask="url(#k1lld1714b)"/>
                        <circle cx="46.027" cy="65.461" r="1" fill="#000638" mask="url(#k1lld1714b)"/>
                        <circle cx="46.027" cy="71.938" r="1" fill="#000638" mask="url(#k1lld1714b)"/>
                        <circle cx="46.027" cy="78.416" r="1" fill="#000638" mask="url(#k1lld1714b)"/>
                        <circle cx="46.027" cy="84.894" r="1" fill="#000638" mask="url(#k1lld1714b)"/>
                        <circle cx="46.027" cy="91.372" r="1" fill="#000638" mask="url(#k1lld1714b)"/>
                        <circle cx="52.505" cy=".682" r="1" fill="#000638" mask="url(#k1lld1714b)"/>
                        <circle cx="52.505" cy="7.16" r="1" fill="#000638" mask="url(#k1lld1714b)"/>
                        <circle cx="52.505" cy="13.638" r="1" fill="#000638" mask="url(#k1lld1714b)"/>
                        <circle cx="52.505" cy="20.115" r="1" fill="#000638" mask="url(#k1lld1714b)"/>
                        <circle cx="52.505" cy="26.593" r="1" fill="#000638" mask="url(#k1lld1714b)"/>
                        <circle cx="52.505" cy="33.071" r="1" fill="#000638" mask="url(#k1lld1714b)"/>
                        <circle cx="52.505" cy="39.549" r="1" fill="#000638" mask="url(#k1lld1714b)"/>
                        <circle cx="52.505" cy="46.027" r="1" fill="#000638" mask="url(#k1lld1714b)"/>
                        <circle cx="52.505" cy="52.505" r="1" fill="#000638" mask="url(#k1lld1714b)"/>
                        <circle cx="52.505" cy="58.983" r="1" fill="#000638" mask="url(#k1lld1714b)"/>
                        <circle cx="52.505" cy="65.461" r="1" fill="#000638" mask="url(#k1lld1714b)"/>
                        <circle cx="52.505" cy="71.938" r="1" fill="#000638" mask="url(#k1lld1714b)"/>
                        <circle cx="52.505" cy="78.416" r="1" fill="#000638" mask="url(#k1lld1714b)"/>
                        <circle cx="52.505" cy="84.894" r="1" fill="#000638" mask="url(#k1lld1714b)"/>
                        <circle cx="52.505" cy="91.372" r="1" fill="#000638" mask="url(#k1lld1714b)"/>
                        <circle cx="58.983" cy=".682" r="1" fill="#000638" mask="url(#k1lld1714b)"/>
                        <circle cx="58.983" cy="7.16" r="1" fill="#000638" mask="url(#k1lld1714b)"/>
                        <circle cx="58.983" cy="13.638" r="1" fill="#000638" mask="url(#k1lld1714b)"/>
                        <circle cx="58.983" cy="20.115" r="1" fill="#000638" mask="url(#k1lld1714b)"/>
                        <circle cx="58.983" cy="26.593" r="1" fill="#000638" mask="url(#k1lld1714b)"/>
                        <circle cx="58.983" cy="33.071" r="1" fill="#000638" mask="url(#k1lld1714b)"/>
                        <circle cx="58.983" cy="39.549" r="1" fill="#000638" mask="url(#k1lld1714b)"/>
                        <circle cx="58.983" cy="46.027" r="1" fill="#000638" mask="url(#k1lld1714b)"/>
                        <circle cx="58.983" cy="52.505" r="1" fill="#000638" mask="url(#k1lld1714b)"/>
                        <circle cx="58.983" cy="58.983" r="1" fill="#000638" mask="url(#k1lld1714b)"/>
                        <circle cx="58.983" cy="65.461" r="1" fill="#000638" mask="url(#k1lld1714b)"/>
                        <circle cx="58.983" cy="71.938" r="1" fill="#000638" mask="url(#k1lld1714b)"/>
                        <circle cx="58.983" cy="78.416" r="1" fill="#000638" mask="url(#k1lld1714b)"/>
                        <circle cx="58.983" cy="84.894" r="1" fill="#000638" mask="url(#k1lld1714b)"/>
                        <circle cx="58.983" cy="91.372" r="1" fill="#000638" mask="url(#k1lld1714b)"/>
                        <circle cx="65.461" cy=".682" r="1" fill="#000638" mask="url(#k1lld1714b)"/>
                        <circle cx="65.461" cy="7.16" r="1" fill="#000638" mask="url(#k1lld1714b)"/>
                        <circle cx="65.461" cy="13.638" r="1" fill="#000638" mask="url(#k1lld1714b)"/>
                        <circle cx="65.461" cy="20.115" r="1" fill="#000638" mask="url(#k1lld1714b)"/>
                        <circle cx="65.461" cy="26.593" r="1" fill="#000638" mask="url(#k1lld1714b)"/>
                        <circle cx="65.461" cy="33.071" r="1" fill="#000638" mask="url(#k1lld1714b)"/>
                        <circle cx="65.461" cy="39.549" r="1" fill="#000638" mask="url(#k1lld1714b)"/>
                        <circle cx="65.461" cy="46.027" r="1" fill="#000638" mask="url(#k1lld1714b)"/>
                        <circle cx="65.461" cy="52.505" r="1" fill="#000638" mask="url(#k1lld1714b)"/>
                        <circle cx="65.461" cy="58.983" r="1" fill="#000638" mask="url(#k1lld1714b)"/>
                        <circle cx="65.461" cy="65.461" r="1" fill="#000638" mask="url(#k1lld1714b)"/>
                        <circle cx="65.461" cy="71.938" r="1" fill="#000638" mask="url(#k1lld1714b)"/>
                        <circle cx="65.461" cy="78.416" r="1" fill="#000638" mask="url(#k1lld1714b)"/>
                        <circle cx="65.461" cy="84.894" r="1" fill="#000638" mask="url(#k1lld1714b)"/>
                        <circle cx="65.461" cy="91.372" r="1" fill="#000638" mask="url(#k1lld1714b)"/>
                        <circle cx="71.938" cy=".682" r="1" fill="#000638" mask="url(#k1lld1714b)"/>
                        <circle cx="71.938" cy="7.16" r="1" fill="#000638" mask="url(#k1lld1714b)"/>
                        <circle cx="71.938" cy="13.638" r="1" fill="#000638" mask="url(#k1lld1714b)"/>
                        <circle cx="71.938" cy="20.115" r="1" fill="#000638" mask="url(#k1lld1714b)"/>
                        <circle cx="71.938" cy="26.593" r="1" fill="#000638" mask="url(#k1lld1714b)"/>
                        <circle cx="71.938" cy="33.071" r="1" fill="#000638" mask="url(#k1lld1714b)"/>
                        <circle cx="71.938" cy="39.549" r="1" fill="#000638" mask="url(#k1lld1714b)"/>
                        <circle cx="71.938" cy="46.027" r="1" fill="#000638" mask="url(#k1lld1714b)"/>
                        <circle cx="71.938" cy="52.505" r="1" fill="#000638" mask="url(#k1lld1714b)"/>
                        <circle cx="71.938" cy="58.983" r="1" fill="#000638" mask="url(#k1lld1714b)"/>
                        <circle cx="71.938" cy="65.461" r="1" fill="#000638" mask="url(#k1lld1714b)"/>
                        <circle cx="71.938" cy="71.938" r="1" fill="#000638" mask="url(#k1lld1714b)"/>
                        <circle cx="71.938" cy="78.416" r="1" fill="#000638" mask="url(#k1lld1714b)"/>
                        <circle cx="71.938" cy="84.894" r="1" fill="#000638" mask="url(#k1lld1714b)"/>
                        <circle cx="71.938" cy="91.372" r="1" fill="#000638" mask="url(#k1lld1714b)"/>
                        <circle cx="78.416" cy=".682" r="1" fill="#000638" mask="url(#k1lld1714b)"/>
                        <circle cx="78.416" cy="7.16" r="1" fill="#000638" mask="url(#k1lld1714b)"/>
                        <circle cx="78.416" cy="13.638" r="1" fill="#000638" mask="url(#k1lld1714b)"/>
                        <circle cx="78.416" cy="20.115" r="1" fill="#000638" mask="url(#k1lld1714b)"/>
                        <circle cx="78.416" cy="26.593" r="1" fill="#000638" mask="url(#k1lld1714b)"/>
                        <circle cx="78.416" cy="33.071" r="1" fill="#000638" mask="url(#k1lld1714b)"/>
                        <circle cx="78.416" cy="39.549" r="1" fill="#000638" mask="url(#k1lld1714b)"/>
                        <circle cx="78.416" cy="46.027" r="1" fill="#000638" mask="url(#k1lld1714b)"/>
                        <circle cx="78.416" cy="52.505" r="1" fill="#000638" mask="url(#k1lld1714b)"/>
                        <circle cx="78.416" cy="58.983" r="1" fill="#000638" mask="url(#k1lld1714b)"/>
                        <circle cx="78.416" cy="65.461" r="1" fill="#000638" mask="url(#k1lld1714b)"/>
                        <circle cx="78.416" cy="71.938" r="1" fill="#000638" mask="url(#k1lld1714b)"/>
                        <circle cx="78.416" cy="78.416" r="1" fill="#000638" mask="url(#k1lld1714b)"/>
                        <circle cx="78.416" cy="84.894" r="1" fill="#000638" mask="url(#k1lld1714b)"/>
                        <circle cx="78.416" cy="91.372" r="1" fill="#000638" mask="url(#k1lld1714b)"/>
                        <circle cx="84.894" cy=".682" r="1" fill="#000638" mask="url(#k1lld1714b)"/>
                        <circle cx="84.894" cy="7.16" r="1" fill="#000638" mask="url(#k1lld1714b)"/>
                        <circle cx="84.894" cy="13.638" r="1" fill="#000638" mask="url(#k1lld1714b)"/>
                        <circle cx="84.894" cy="20.115" r="1" fill="#000638" mask="url(#k1lld1714b)"/>
                        <circle cx="84.894" cy="26.593" r="1" fill="#000638" mask="url(#k1lld1714b)"/>
                        <circle cx="84.894" cy="33.071" r="1" fill="#000638" mask="url(#k1lld1714b)"/>
                        <circle cx="84.894" cy="39.549" r="1" fill="#000638" mask="url(#k1lld1714b)"/>
                        <circle cx="84.894" cy="46.027" r="1" fill="#000638" mask="url(#k1lld1714b)"/>
                        <circle cx="84.894" cy="52.505" r="1" fill="#000638" mask="url(#k1lld1714b)"/>
                        <circle cx="84.894" cy="58.983" r="1" fill="#000638" mask="url(#k1lld1714b)"/>
                        <circle cx="84.894" cy="65.461" r="1" fill="#000638" mask="url(#k1lld1714b)"/>
                        <circle cx="84.894" cy="71.938" r="1" fill="#000638" mask="url(#k1lld1714b)"/>
                        <circle cx="84.894" cy="78.416" r="1" fill="#000638" mask="url(#k1lld1714b)"/>
                        <circle cx="84.894" cy="84.894" r="1" fill="#000638" mask="url(#k1lld1714b)"/>
                        <circle cx="84.894" cy="91.372" r="1" fill="#000638" mask="url(#k1lld1714b)"/>
                        <circle cx="91.372" cy=".682" r="1" fill="#000638" mask="url(#k1lld1714b)"/>
                        <circle cx="91.372" cy="7.16" r="1" fill="#000638" mask="url(#k1lld1714b)"/>
                        <circle cx="91.372" cy="13.638" r="1" fill="#000638" mask="url(#k1lld1714b)"/>
                        <circle cx="91.372" cy="20.115" r="1" fill="#000638" mask="url(#k1lld1714b)"/>
                        <circle cx="91.372" cy="26.593" r="1" fill="#000638" mask="url(#k1lld1714b)"/>
                        <circle cx="91.372" cy="33.071" r="1" fill="#000638" mask="url(#k1lld1714b)"/>
                        <circle cx="91.372" cy="39.549" r="1" fill="#000638" mask="url(#k1lld1714b)"/>
                        <circle cx="91.372" cy="46.027" r="1" fill="#000638" mask="url(#k1lld1714b)"/>
                        <circle cx="91.372" cy="52.505" r="1" fill="#000638" mask="url(#k1lld1714b)"/>
                        <circle cx="91.372" cy="58.983" r="1" fill="#000638" mask="url(#k1lld1714b)"/>
                        <circle cx="91.372" cy="65.461" r="1" fill="#000638" mask="url(#k1lld1714b)"/>
                        <circle cx="91.372" cy="71.938" r="1" fill="#000638" mask="url(#k1lld1714b)"/>
                        <circle cx="91.372" cy="78.416" r="1" fill="#000638" mask="url(#k1lld1714b)"/>
                        <circle cx="91.372" cy="84.894" r="1" fill="#000638" mask="url(#k1lld1714b)"/>
                        <circle cx="91.372" cy="91.372" r="1" fill="#000638" mask="url(#k1lld1714b)"/>
                    </g>
                    <g fill="#FFAD1D" fill-rule="nonzero">
                        <path d="M15.5 0C24.06 0 31 6.94 31 15.5 31 24.06 24.06 31 15.5 31 6.94 31 0 24.06 0 15.5 0 6.94 6.94 0 15.5 0zm0 8C11.358 8 8 11.358 8 15.5c0 4.142 3.358 7.5 7.5 7.5 4.142 0 7.5-3.358 7.5-7.5 0-4.142-3.358-7.5-7.5-7.5z" transform="translate(-155 -341) translate(181.5 363) translate(-26.343 -21.668) translate(71.843 75.168)"/>
                    </g>
                </g>
            </g>
        </g>
    </g>
</svg>
