<svg xmlns="http://www.w3.org/2000/svg" xmlns:xlink="http://www.w3.org/1999/xlink" width="487" height="454" viewBox="0 0 487 454">
    <defs>
        <path id="g88cl72j7a" d="M0 0L105.527 0 105.527 105.527 0 105.527z"/>
        <path id="ugndn9ylcc" d="M0 0L97.168 0 97.168 97.168 0 97.168z"/>
    </defs>
    <g fill="none" fill-rule="evenodd">
        <g>
            <g transform="translate(-803 -120) translate(803 120)">
                <g transform="translate(381 31)">
                    <mask id="m2qcqmi9qb" fill="#fff">
                        <use xlink:href="#g88cl72j7a"/>
                    </mask>
                    <circle cx=".741" cy=".741" r="1" fill="#000638" mask="url(#m2qcqmi9qb)"/>
                    <circle cx=".741" cy="7.776" r="1" fill="#000638" mask="url(#m2qcqmi9qb)"/>
                    <circle cx=".741" cy="14.811" r="1" fill="#000638" mask="url(#m2qcqmi9qb)"/>
                    <circle cx=".741" cy="21.846" r="1" fill="#000638" mask="url(#m2qcqmi9qb)"/>
                    <circle cx=".741" cy="28.881" r="1" fill="#000638" mask="url(#m2qcqmi9qb)"/>
                    <circle cx=".741" cy="35.916" r="1" fill="#000638" mask="url(#m2qcqmi9qb)"/>
                    <circle cx=".741" cy="42.951" r="1" fill="#000638" mask="url(#m2qcqmi9qb)"/>
                    <circle cx=".741" cy="49.986" r="1" fill="#000638" mask="url(#m2qcqmi9qb)"/>
                    <circle cx=".741" cy="57.021" r="1" fill="#000638" mask="url(#m2qcqmi9qb)"/>
                    <circle cx=".741" cy="64.057" r="1" fill="#000638" mask="url(#m2qcqmi9qb)"/>
                    <circle cx=".741" cy="71.092" r="1" fill="#000638" mask="url(#m2qcqmi9qb)"/>
                    <circle cx=".741" cy="78.127" r="1" fill="#000638" mask="url(#m2qcqmi9qb)"/>
                    <circle cx=".741" cy="85.162" r="1" fill="#000638" mask="url(#m2qcqmi9qb)"/>
                    <circle cx=".741" cy="92.197" r="1" fill="#000638" mask="url(#m2qcqmi9qb)"/>
                    <circle cx=".741" cy="99.232" r="1" fill="#000638" mask="url(#m2qcqmi9qb)"/>
                    <circle cx="7.776" cy=".741" r="1" fill="#000638" mask="url(#m2qcqmi9qb)"/>
                    <circle cx="7.776" cy="7.776" r="1" fill="#000638" mask="url(#m2qcqmi9qb)"/>
                    <circle cx="7.776" cy="14.811" r="1" fill="#000638" mask="url(#m2qcqmi9qb)"/>
                    <circle cx="7.776" cy="21.846" r="1" fill="#000638" mask="url(#m2qcqmi9qb)"/>
                    <circle cx="7.776" cy="28.881" r="1" fill="#000638" mask="url(#m2qcqmi9qb)"/>
                    <circle cx="7.776" cy="35.916" r="1" fill="#000638" mask="url(#m2qcqmi9qb)"/>
                    <circle cx="7.776" cy="42.951" r="1" fill="#000638" mask="url(#m2qcqmi9qb)"/>
                    <circle cx="7.776" cy="49.986" r="1" fill="#000638" mask="url(#m2qcqmi9qb)"/>
                    <circle cx="7.776" cy="57.021" r="1" fill="#000638" mask="url(#m2qcqmi9qb)"/>
                    <circle cx="7.776" cy="64.057" r="1" fill="#000638" mask="url(#m2qcqmi9qb)"/>
                    <circle cx="7.776" cy="71.092" r="1" fill="#000638" mask="url(#m2qcqmi9qb)"/>
                    <circle cx="7.776" cy="78.127" r="1" fill="#000638" mask="url(#m2qcqmi9qb)"/>
                    <circle cx="7.776" cy="85.162" r="1" fill="#000638" mask="url(#m2qcqmi9qb)"/>
                    <circle cx="7.776" cy="92.197" r="1" fill="#000638" mask="url(#m2qcqmi9qb)"/>
                    <circle cx="7.776" cy="99.232" r="1" fill="#000638" mask="url(#m2qcqmi9qb)"/>
                    <circle cx="14.811" cy=".741" r="1" fill="#000638" mask="url(#m2qcqmi9qb)"/>
                    <circle cx="14.811" cy="7.776" r="1" fill="#000638" mask="url(#m2qcqmi9qb)"/>
                    <circle cx="14.811" cy="14.811" r="1" fill="#000638" mask="url(#m2qcqmi9qb)"/>
                    <circle cx="14.811" cy="21.846" r="1" fill="#000638" mask="url(#m2qcqmi9qb)"/>
                    <circle cx="14.811" cy="28.881" r="1" fill="#000638" mask="url(#m2qcqmi9qb)"/>
                    <circle cx="14.811" cy="35.916" r="1" fill="#000638" mask="url(#m2qcqmi9qb)"/>
                    <circle cx="14.811" cy="42.951" r="1" fill="#000638" mask="url(#m2qcqmi9qb)"/>
                    <circle cx="14.811" cy="49.986" r="1" fill="#000638" mask="url(#m2qcqmi9qb)"/>
                    <circle cx="14.811" cy="57.021" r="1" fill="#000638" mask="url(#m2qcqmi9qb)"/>
                    <circle cx="14.811" cy="64.057" r="1" fill="#000638" mask="url(#m2qcqmi9qb)"/>
                    <circle cx="14.811" cy="71.092" r="1" fill="#000638" mask="url(#m2qcqmi9qb)"/>
                    <circle cx="14.811" cy="78.127" r="1" fill="#000638" mask="url(#m2qcqmi9qb)"/>
                    <circle cx="14.811" cy="85.162" r="1" fill="#000638" mask="url(#m2qcqmi9qb)"/>
                    <circle cx="14.811" cy="92.197" r="1" fill="#000638" mask="url(#m2qcqmi9qb)"/>
                    <circle cx="14.811" cy="99.232" r="1" fill="#000638" mask="url(#m2qcqmi9qb)"/>
                    <circle cx="21.846" cy=".741" r="1" fill="#000638" mask="url(#m2qcqmi9qb)"/>
                    <circle cx="21.846" cy="7.776" r="1" fill="#000638" mask="url(#m2qcqmi9qb)"/>
                    <circle cx="21.846" cy="14.811" r="1" fill="#000638" mask="url(#m2qcqmi9qb)"/>
                    <circle cx="21.846" cy="21.846" r="1" fill="#000638" mask="url(#m2qcqmi9qb)"/>
                    <circle cx="21.846" cy="28.881" r="1" fill="#000638" mask="url(#m2qcqmi9qb)"/>
                    <circle cx="21.846" cy="35.916" r="1" fill="#000638" mask="url(#m2qcqmi9qb)"/>
                    <circle cx="21.846" cy="42.951" r="1" fill="#000638" mask="url(#m2qcqmi9qb)"/>
                    <circle cx="21.846" cy="49.986" r="1" fill="#000638" mask="url(#m2qcqmi9qb)"/>
                    <circle cx="21.846" cy="57.021" r="1" fill="#000638" mask="url(#m2qcqmi9qb)"/>
                    <circle cx="21.846" cy="64.057" r="1" fill="#000638" mask="url(#m2qcqmi9qb)"/>
                    <circle cx="21.846" cy="71.092" r="1" fill="#000638" mask="url(#m2qcqmi9qb)"/>
                    <circle cx="21.846" cy="78.127" r="1" fill="#000638" mask="url(#m2qcqmi9qb)"/>
                    <circle cx="21.846" cy="85.162" r="1" fill="#000638" mask="url(#m2qcqmi9qb)"/>
                    <circle cx="21.846" cy="92.197" r="1" fill="#000638" mask="url(#m2qcqmi9qb)"/>
                    <circle cx="21.846" cy="99.232" r="1" fill="#000638" mask="url(#m2qcqmi9qb)"/>
                    <circle cx="28.881" cy=".741" r="1" fill="#000638" mask="url(#m2qcqmi9qb)"/>
                    <circle cx="28.881" cy="7.776" r="1" fill="#000638" mask="url(#m2qcqmi9qb)"/>
                    <circle cx="28.881" cy="14.811" r="1" fill="#000638" mask="url(#m2qcqmi9qb)"/>
                    <circle cx="28.881" cy="21.846" r="1" fill="#000638" mask="url(#m2qcqmi9qb)"/>
                    <circle cx="28.881" cy="28.881" r="1" fill="#000638" mask="url(#m2qcqmi9qb)"/>
                    <circle cx="28.881" cy="35.916" r="1" fill="#000638" mask="url(#m2qcqmi9qb)"/>
                    <circle cx="28.881" cy="42.951" r="1" fill="#000638" mask="url(#m2qcqmi9qb)"/>
                    <circle cx="28.881" cy="49.986" r="1" fill="#000638" mask="url(#m2qcqmi9qb)"/>
                    <circle cx="28.881" cy="57.021" r="1" fill="#000638" mask="url(#m2qcqmi9qb)"/>
                    <circle cx="28.881" cy="64.057" r="1" fill="#000638" mask="url(#m2qcqmi9qb)"/>
                    <circle cx="28.881" cy="71.092" r="1" fill="#000638" mask="url(#m2qcqmi9qb)"/>
                    <circle cx="28.881" cy="78.127" r="1" fill="#000638" mask="url(#m2qcqmi9qb)"/>
                    <circle cx="28.881" cy="85.162" r="1" fill="#000638" mask="url(#m2qcqmi9qb)"/>
                    <circle cx="28.881" cy="92.197" r="1" fill="#000638" mask="url(#m2qcqmi9qb)"/>
                    <circle cx="28.881" cy="99.232" r="1" fill="#000638" mask="url(#m2qcqmi9qb)"/>
                    <circle cx="35.916" cy=".741" r="1" fill="#000638" mask="url(#m2qcqmi9qb)"/>
                    <circle cx="35.916" cy="7.776" r="1" fill="#000638" mask="url(#m2qcqmi9qb)"/>
                    <circle cx="35.916" cy="14.811" r="1" fill="#000638" mask="url(#m2qcqmi9qb)"/>
                    <circle cx="35.916" cy="21.846" r="1" fill="#000638" mask="url(#m2qcqmi9qb)"/>
                    <circle cx="35.916" cy="28.881" r="1" fill="#000638" mask="url(#m2qcqmi9qb)"/>
                    <circle cx="35.916" cy="35.916" r="1" fill="#000638" mask="url(#m2qcqmi9qb)"/>
                    <circle cx="35.916" cy="42.951" r="1" fill="#000638" mask="url(#m2qcqmi9qb)"/>
                    <circle cx="35.916" cy="49.986" r="1" fill="#000638" mask="url(#m2qcqmi9qb)"/>
                    <circle cx="35.916" cy="57.021" r="1" fill="#000638" mask="url(#m2qcqmi9qb)"/>
                    <circle cx="35.916" cy="64.057" r="1" fill="#000638" mask="url(#m2qcqmi9qb)"/>
                    <circle cx="35.916" cy="71.092" r="1" fill="#000638" mask="url(#m2qcqmi9qb)"/>
                    <circle cx="35.916" cy="78.127" r="1" fill="#000638" mask="url(#m2qcqmi9qb)"/>
                    <circle cx="35.916" cy="85.162" r="1" fill="#000638" mask="url(#m2qcqmi9qb)"/>
                    <circle cx="35.916" cy="92.197" r="1" fill="#000638" mask="url(#m2qcqmi9qb)"/>
                    <circle cx="35.916" cy="99.232" r="1" fill="#000638" mask="url(#m2qcqmi9qb)"/>
                    <circle cx="42.951" cy=".741" r="1" fill="#000638" mask="url(#m2qcqmi9qb)"/>
                    <circle cx="42.951" cy="7.776" r="1" fill="#000638" mask="url(#m2qcqmi9qb)"/>
                    <circle cx="42.951" cy="14.811" r="1" fill="#000638" mask="url(#m2qcqmi9qb)"/>
                    <circle cx="42.951" cy="21.846" r="1" fill="#000638" mask="url(#m2qcqmi9qb)"/>
                    <circle cx="42.951" cy="28.881" r="1" fill="#000638" mask="url(#m2qcqmi9qb)"/>
                    <circle cx="42.951" cy="35.916" r="1" fill="#000638" mask="url(#m2qcqmi9qb)"/>
                    <circle cx="42.951" cy="42.951" r="1" fill="#000638" mask="url(#m2qcqmi9qb)"/>
                    <circle cx="42.951" cy="49.986" r="1" fill="#000638" mask="url(#m2qcqmi9qb)"/>
                    <circle cx="42.951" cy="57.021" r="1" fill="#000638" mask="url(#m2qcqmi9qb)"/>
                    <circle cx="42.951" cy="64.057" r="1" fill="#000638" mask="url(#m2qcqmi9qb)"/>
                    <circle cx="42.951" cy="71.092" r="1" fill="#000638" mask="url(#m2qcqmi9qb)"/>
                    <circle cx="42.951" cy="78.127" r="1" fill="#000638" mask="url(#m2qcqmi9qb)"/>
                    <circle cx="42.951" cy="85.162" r="1" fill="#000638" mask="url(#m2qcqmi9qb)"/>
                    <circle cx="42.951" cy="92.197" r="1" fill="#000638" mask="url(#m2qcqmi9qb)"/>
                    <circle cx="42.951" cy="99.232" r="1" fill="#000638" mask="url(#m2qcqmi9qb)"/>
                    <circle cx="49.986" cy=".741" r="1" fill="#000638" mask="url(#m2qcqmi9qb)"/>
                    <circle cx="49.986" cy="7.776" r="1" fill="#000638" mask="url(#m2qcqmi9qb)"/>
                    <circle cx="49.986" cy="14.811" r="1" fill="#000638" mask="url(#m2qcqmi9qb)"/>
                    <circle cx="49.986" cy="21.846" r="1" fill="#000638" mask="url(#m2qcqmi9qb)"/>
                    <circle cx="49.986" cy="28.881" r="1" fill="#000638" mask="url(#m2qcqmi9qb)"/>
                    <circle cx="49.986" cy="35.916" r="1" fill="#000638" mask="url(#m2qcqmi9qb)"/>
                    <circle cx="49.986" cy="42.951" r="1" fill="#000638" mask="url(#m2qcqmi9qb)"/>
                    <circle cx="49.986" cy="49.986" r="1" fill="#000638" mask="url(#m2qcqmi9qb)"/>
                    <circle cx="49.986" cy="57.021" r="1" fill="#000638" mask="url(#m2qcqmi9qb)"/>
                    <circle cx="49.986" cy="64.057" r="1" fill="#000638" mask="url(#m2qcqmi9qb)"/>
                    <circle cx="49.986" cy="71.092" r="1" fill="#000638" mask="url(#m2qcqmi9qb)"/>
                    <circle cx="49.986" cy="78.127" r="1" fill="#000638" mask="url(#m2qcqmi9qb)"/>
                    <circle cx="49.986" cy="85.162" r="1" fill="#000638" mask="url(#m2qcqmi9qb)"/>
                    <circle cx="49.986" cy="92.197" r="1" fill="#000638" mask="url(#m2qcqmi9qb)"/>
                    <circle cx="49.986" cy="99.232" r="1" fill="#000638" mask="url(#m2qcqmi9qb)"/>
                    <circle cx="57.021" cy=".741" r="1" fill="#000638" mask="url(#m2qcqmi9qb)"/>
                    <circle cx="57.021" cy="7.776" r="1" fill="#000638" mask="url(#m2qcqmi9qb)"/>
                    <circle cx="57.021" cy="14.811" r="1" fill="#000638" mask="url(#m2qcqmi9qb)"/>
                    <circle cx="57.021" cy="21.846" r="1" fill="#000638" mask="url(#m2qcqmi9qb)"/>
                    <circle cx="57.021" cy="28.881" r="1" fill="#000638" mask="url(#m2qcqmi9qb)"/>
                    <circle cx="57.021" cy="35.916" r="1" fill="#000638" mask="url(#m2qcqmi9qb)"/>
                    <circle cx="57.021" cy="42.951" r="1" fill="#000638" mask="url(#m2qcqmi9qb)"/>
                    <circle cx="57.021" cy="49.986" r="1" fill="#000638" mask="url(#m2qcqmi9qb)"/>
                    <circle cx="57.021" cy="57.021" r="1" fill="#000638" mask="url(#m2qcqmi9qb)"/>
                    <circle cx="57.021" cy="64.057" r="1" fill="#000638" mask="url(#m2qcqmi9qb)"/>
                    <circle cx="57.021" cy="71.092" r="1" fill="#000638" mask="url(#m2qcqmi9qb)"/>
                    <circle cx="57.021" cy="78.127" r="1" fill="#000638" mask="url(#m2qcqmi9qb)"/>
                    <circle cx="57.021" cy="85.162" r="1" fill="#000638" mask="url(#m2qcqmi9qb)"/>
                    <circle cx="57.021" cy="92.197" r="1" fill="#000638" mask="url(#m2qcqmi9qb)"/>
                    <circle cx="57.021" cy="99.232" r="1" fill="#000638" mask="url(#m2qcqmi9qb)"/>
                    <circle cx="64.057" cy=".741" r="1" fill="#000638" mask="url(#m2qcqmi9qb)"/>
                    <circle cx="64.057" cy="7.776" r="1" fill="#000638" mask="url(#m2qcqmi9qb)"/>
                    <circle cx="64.057" cy="14.811" r="1" fill="#000638" mask="url(#m2qcqmi9qb)"/>
                    <circle cx="64.057" cy="21.846" r="1" fill="#000638" mask="url(#m2qcqmi9qb)"/>
                    <circle cx="64.057" cy="28.881" r="1" fill="#000638" mask="url(#m2qcqmi9qb)"/>
                    <circle cx="64.057" cy="35.916" r="1" fill="#000638" mask="url(#m2qcqmi9qb)"/>
                    <circle cx="64.057" cy="42.951" r="1" fill="#000638" mask="url(#m2qcqmi9qb)"/>
                    <circle cx="64.057" cy="49.986" r="1" fill="#000638" mask="url(#m2qcqmi9qb)"/>
                    <circle cx="64.057" cy="57.021" r="1" fill="#000638" mask="url(#m2qcqmi9qb)"/>
                    <circle cx="64.057" cy="64.057" r="1" fill="#000638" mask="url(#m2qcqmi9qb)"/>
                    <circle cx="64.057" cy="71.092" r="1" fill="#000638" mask="url(#m2qcqmi9qb)"/>
                    <circle cx="64.057" cy="78.127" r="1" fill="#000638" mask="url(#m2qcqmi9qb)"/>
                    <circle cx="64.057" cy="85.162" r="1" fill="#000638" mask="url(#m2qcqmi9qb)"/>
                    <circle cx="64.057" cy="92.197" r="1" fill="#000638" mask="url(#m2qcqmi9qb)"/>
                    <circle cx="64.057" cy="99.232" r="1" fill="#000638" mask="url(#m2qcqmi9qb)"/>
                    <circle cx="71.092" cy=".741" r="1" fill="#000638" mask="url(#m2qcqmi9qb)"/>
                    <circle cx="71.092" cy="7.776" r="1" fill="#000638" mask="url(#m2qcqmi9qb)"/>
                    <circle cx="71.092" cy="14.811" r="1" fill="#000638" mask="url(#m2qcqmi9qb)"/>
                    <circle cx="71.092" cy="21.846" r="1" fill="#000638" mask="url(#m2qcqmi9qb)"/>
                    <circle cx="71.092" cy="28.881" r="1" fill="#000638" mask="url(#m2qcqmi9qb)"/>
                    <circle cx="71.092" cy="35.916" r="1" fill="#000638" mask="url(#m2qcqmi9qb)"/>
                    <circle cx="71.092" cy="42.951" r="1" fill="#000638" mask="url(#m2qcqmi9qb)"/>
                    <circle cx="71.092" cy="49.986" r="1" fill="#000638" mask="url(#m2qcqmi9qb)"/>
                    <circle cx="71.092" cy="57.021" r="1" fill="#000638" mask="url(#m2qcqmi9qb)"/>
                    <circle cx="71.092" cy="64.057" r="1" fill="#000638" mask="url(#m2qcqmi9qb)"/>
                    <circle cx="71.092" cy="71.092" r="1" fill="#000638" mask="url(#m2qcqmi9qb)"/>
                    <circle cx="71.092" cy="78.127" r="1" fill="#000638" mask="url(#m2qcqmi9qb)"/>
                    <circle cx="71.092" cy="85.162" r="1" fill="#000638" mask="url(#m2qcqmi9qb)"/>
                    <circle cx="71.092" cy="92.197" r="1" fill="#000638" mask="url(#m2qcqmi9qb)"/>
                    <circle cx="71.092" cy="99.232" r="1" fill="#000638" mask="url(#m2qcqmi9qb)"/>
                    <circle cx="78.127" cy=".741" r="1" fill="#000638" mask="url(#m2qcqmi9qb)"/>
                    <circle cx="78.127" cy="7.776" r="1" fill="#000638" mask="url(#m2qcqmi9qb)"/>
                    <circle cx="78.127" cy="14.811" r="1" fill="#000638" mask="url(#m2qcqmi9qb)"/>
                    <circle cx="78.127" cy="21.846" r="1" fill="#000638" mask="url(#m2qcqmi9qb)"/>
                    <circle cx="78.127" cy="28.881" r="1" fill="#000638" mask="url(#m2qcqmi9qb)"/>
                    <circle cx="78.127" cy="35.916" r="1" fill="#000638" mask="url(#m2qcqmi9qb)"/>
                    <circle cx="78.127" cy="42.951" r="1" fill="#000638" mask="url(#m2qcqmi9qb)"/>
                    <circle cx="78.127" cy="49.986" r="1" fill="#000638" mask="url(#m2qcqmi9qb)"/>
                    <circle cx="78.127" cy="57.021" r="1" fill="#000638" mask="url(#m2qcqmi9qb)"/>
                    <circle cx="78.127" cy="64.057" r="1" fill="#000638" mask="url(#m2qcqmi9qb)"/>
                    <circle cx="78.127" cy="71.092" r="1" fill="#000638" mask="url(#m2qcqmi9qb)"/>
                    <circle cx="78.127" cy="78.127" r="1" fill="#000638" mask="url(#m2qcqmi9qb)"/>
                    <circle cx="78.127" cy="85.162" r="1" fill="#000638" mask="url(#m2qcqmi9qb)"/>
                    <circle cx="78.127" cy="92.197" r="1" fill="#000638" mask="url(#m2qcqmi9qb)"/>
                    <circle cx="78.127" cy="99.232" r="1" fill="#000638" mask="url(#m2qcqmi9qb)"/>
                    <circle cx="85.162" cy=".741" r="1" fill="#000638" mask="url(#m2qcqmi9qb)"/>
                    <circle cx="85.162" cy="7.776" r="1" fill="#000638" mask="url(#m2qcqmi9qb)"/>
                    <circle cx="85.162" cy="14.811" r="1" fill="#000638" mask="url(#m2qcqmi9qb)"/>
                    <circle cx="85.162" cy="21.846" r="1" fill="#000638" mask="url(#m2qcqmi9qb)"/>
                    <circle cx="85.162" cy="28.881" r="1" fill="#000638" mask="url(#m2qcqmi9qb)"/>
                    <circle cx="85.162" cy="35.916" r="1" fill="#000638" mask="url(#m2qcqmi9qb)"/>
                    <circle cx="85.162" cy="42.951" r="1" fill="#000638" mask="url(#m2qcqmi9qb)"/>
                    <circle cx="85.162" cy="49.986" r="1" fill="#000638" mask="url(#m2qcqmi9qb)"/>
                    <circle cx="85.162" cy="57.021" r="1" fill="#000638" mask="url(#m2qcqmi9qb)"/>
                    <circle cx="85.162" cy="64.057" r="1" fill="#000638" mask="url(#m2qcqmi9qb)"/>
                    <circle cx="85.162" cy="71.092" r="1" fill="#000638" mask="url(#m2qcqmi9qb)"/>
                    <circle cx="85.162" cy="78.127" r="1" fill="#000638" mask="url(#m2qcqmi9qb)"/>
                    <circle cx="85.162" cy="85.162" r="1" fill="#000638" mask="url(#m2qcqmi9qb)"/>
                    <circle cx="85.162" cy="92.197" r="1" fill="#000638" mask="url(#m2qcqmi9qb)"/>
                    <circle cx="85.162" cy="99.232" r="1" fill="#000638" mask="url(#m2qcqmi9qb)"/>
                    <circle cx="92.197" cy=".741" r="1" fill="#000638" mask="url(#m2qcqmi9qb)"/>
                    <circle cx="92.197" cy="7.776" r="1" fill="#000638" mask="url(#m2qcqmi9qb)"/>
                    <circle cx="92.197" cy="14.811" r="1" fill="#000638" mask="url(#m2qcqmi9qb)"/>
                    <circle cx="92.197" cy="21.846" r="1" fill="#000638" mask="url(#m2qcqmi9qb)"/>
                    <circle cx="92.197" cy="28.881" r="1" fill="#000638" mask="url(#m2qcqmi9qb)"/>
                    <circle cx="92.197" cy="35.916" r="1" fill="#000638" mask="url(#m2qcqmi9qb)"/>
                    <circle cx="92.197" cy="42.951" r="1" fill="#000638" mask="url(#m2qcqmi9qb)"/>
                    <circle cx="92.197" cy="49.986" r="1" fill="#000638" mask="url(#m2qcqmi9qb)"/>
                    <circle cx="92.197" cy="57.021" r="1" fill="#000638" mask="url(#m2qcqmi9qb)"/>
                    <circle cx="92.197" cy="64.057" r="1" fill="#000638" mask="url(#m2qcqmi9qb)"/>
                    <circle cx="92.197" cy="71.092" r="1" fill="#000638" mask="url(#m2qcqmi9qb)"/>
                    <circle cx="92.197" cy="78.127" r="1" fill="#000638" mask="url(#m2qcqmi9qb)"/>
                    <circle cx="92.197" cy="85.162" r="1" fill="#000638" mask="url(#m2qcqmi9qb)"/>
                    <circle cx="92.197" cy="92.197" r="1" fill="#000638" mask="url(#m2qcqmi9qb)"/>
                    <circle cx="92.197" cy="99.232" r="1" fill="#000638" mask="url(#m2qcqmi9qb)"/>
                    <circle cx="99.232" cy=".741" r="1" fill="#000638" mask="url(#m2qcqmi9qb)"/>
                    <circle cx="99.232" cy="7.776" r="1" fill="#000638" mask="url(#m2qcqmi9qb)"/>
                    <circle cx="99.232" cy="14.811" r="1" fill="#000638" mask="url(#m2qcqmi9qb)"/>
                    <circle cx="99.232" cy="21.846" r="1" fill="#000638" mask="url(#m2qcqmi9qb)"/>
                    <circle cx="99.232" cy="28.881" r="1" fill="#000638" mask="url(#m2qcqmi9qb)"/>
                    <circle cx="99.232" cy="35.916" r="1" fill="#000638" mask="url(#m2qcqmi9qb)"/>
                    <circle cx="99.232" cy="42.951" r="1" fill="#000638" mask="url(#m2qcqmi9qb)"/>
                    <circle cx="99.232" cy="49.986" r="1" fill="#000638" mask="url(#m2qcqmi9qb)"/>
                    <circle cx="99.232" cy="57.021" r="1" fill="#000638" mask="url(#m2qcqmi9qb)"/>
                    <circle cx="99.232" cy="64.057" r="1" fill="#000638" mask="url(#m2qcqmi9qb)"/>
                    <circle cx="99.232" cy="71.092" r="1" fill="#000638" mask="url(#m2qcqmi9qb)"/>
                    <circle cx="99.232" cy="78.127" r="1" fill="#000638" mask="url(#m2qcqmi9qb)"/>
                    <circle cx="99.232" cy="85.162" r="1" fill="#000638" mask="url(#m2qcqmi9qb)"/>
                    <circle cx="99.232" cy="92.197" r="1" fill="#000638" mask="url(#m2qcqmi9qb)"/>
                    <circle cx="99.232" cy="99.232" r="1" fill="#000638" mask="url(#m2qcqmi9qb)"/>
                </g>
                <g transform="translate(89.157 346.832)">
                    <mask id="00ij7f0vnd" fill="#fff">
                        <use xlink:href="#ugndn9ylcc"/>
                    </mask>
                    <circle cx=".682" cy=".682" r="1" fill="#000638" mask="url(#00ij7f0vnd)"/>
                    <circle cx=".682" cy="7.16" r="1" fill="#000638" mask="url(#00ij7f0vnd)"/>
                    <circle cx=".682" cy="13.638" r="1" fill="#000638" mask="url(#00ij7f0vnd)"/>
                    <circle cx=".682" cy="20.115" r="1" fill="#000638" mask="url(#00ij7f0vnd)"/>
                    <circle cx=".682" cy="26.593" r="1" fill="#000638" mask="url(#00ij7f0vnd)"/>
                    <circle cx=".682" cy="33.071" r="1" fill="#000638" mask="url(#00ij7f0vnd)"/>
                    <circle cx=".682" cy="39.549" r="1" fill="#000638" mask="url(#00ij7f0vnd)"/>
                    <circle cx=".682" cy="46.027" r="1" fill="#000638" mask="url(#00ij7f0vnd)"/>
                    <circle cx=".682" cy="52.505" r="1" fill="#000638" mask="url(#00ij7f0vnd)"/>
                    <circle cx=".682" cy="58.983" r="1" fill="#000638" mask="url(#00ij7f0vnd)"/>
                    <circle cx=".682" cy="65.461" r="1" fill="#000638" mask="url(#00ij7f0vnd)"/>
                    <circle cx=".682" cy="71.938" r="1" fill="#000638" mask="url(#00ij7f0vnd)"/>
                    <circle cx=".682" cy="78.416" r="1" fill="#000638" mask="url(#00ij7f0vnd)"/>
                    <circle cx=".682" cy="84.894" r="1" fill="#000638" mask="url(#00ij7f0vnd)"/>
                    <circle cx=".682" cy="91.372" r="1" fill="#000638" mask="url(#00ij7f0vnd)"/>
                    <circle cx="7.16" cy=".682" r="1" fill="#000638" mask="url(#00ij7f0vnd)"/>
                    <circle cx="7.16" cy="7.16" r="1" fill="#000638" mask="url(#00ij7f0vnd)"/>
                    <circle cx="7.16" cy="13.638" r="1" fill="#000638" mask="url(#00ij7f0vnd)"/>
                    <circle cx="7.16" cy="20.115" r="1" fill="#000638" mask="url(#00ij7f0vnd)"/>
                    <circle cx="7.16" cy="26.593" r="1" fill="#000638" mask="url(#00ij7f0vnd)"/>
                    <circle cx="7.16" cy="33.071" r="1" fill="#000638" mask="url(#00ij7f0vnd)"/>
                    <circle cx="7.16" cy="39.549" r="1" fill="#000638" mask="url(#00ij7f0vnd)"/>
                    <circle cx="7.16" cy="46.027" r="1" fill="#000638" mask="url(#00ij7f0vnd)"/>
                    <circle cx="7.16" cy="52.505" r="1" fill="#000638" mask="url(#00ij7f0vnd)"/>
                    <circle cx="7.16" cy="58.983" r="1" fill="#000638" mask="url(#00ij7f0vnd)"/>
                    <circle cx="7.16" cy="65.461" r="1" fill="#000638" mask="url(#00ij7f0vnd)"/>
                    <circle cx="7.16" cy="71.938" r="1" fill="#000638" mask="url(#00ij7f0vnd)"/>
                    <circle cx="7.16" cy="78.416" r="1" fill="#000638" mask="url(#00ij7f0vnd)"/>
                    <circle cx="7.16" cy="84.894" r="1" fill="#000638" mask="url(#00ij7f0vnd)"/>
                    <circle cx="7.16" cy="91.372" r="1" fill="#000638" mask="url(#00ij7f0vnd)"/>
                    <circle cx="13.638" cy=".682" r="1" fill="#000638" mask="url(#00ij7f0vnd)"/>
                    <circle cx="13.638" cy="7.16" r="1" fill="#000638" mask="url(#00ij7f0vnd)"/>
                    <circle cx="13.638" cy="13.638" r="1" fill="#000638" mask="url(#00ij7f0vnd)"/>
                    <circle cx="13.638" cy="20.115" r="1" fill="#000638" mask="url(#00ij7f0vnd)"/>
                    <circle cx="13.638" cy="26.593" r="1" fill="#000638" mask="url(#00ij7f0vnd)"/>
                    <circle cx="13.638" cy="33.071" r="1" fill="#000638" mask="url(#00ij7f0vnd)"/>
                    <circle cx="13.638" cy="39.549" r="1" fill="#000638" mask="url(#00ij7f0vnd)"/>
                    <circle cx="13.638" cy="46.027" r="1" fill="#000638" mask="url(#00ij7f0vnd)"/>
                    <circle cx="13.638" cy="52.505" r="1" fill="#000638" mask="url(#00ij7f0vnd)"/>
                    <circle cx="13.638" cy="58.983" r="1" fill="#000638" mask="url(#00ij7f0vnd)"/>
                    <circle cx="13.638" cy="65.461" r="1" fill="#000638" mask="url(#00ij7f0vnd)"/>
                    <circle cx="13.638" cy="71.938" r="1" fill="#000638" mask="url(#00ij7f0vnd)"/>
                    <circle cx="13.638" cy="78.416" r="1" fill="#000638" mask="url(#00ij7f0vnd)"/>
                    <circle cx="13.638" cy="84.894" r="1" fill="#000638" mask="url(#00ij7f0vnd)"/>
                    <circle cx="13.638" cy="91.372" r="1" fill="#000638" mask="url(#00ij7f0vnd)"/>
                    <circle cx="20.115" cy=".682" r="1" fill="#000638" mask="url(#00ij7f0vnd)"/>
                    <circle cx="20.115" cy="7.16" r="1" fill="#000638" mask="url(#00ij7f0vnd)"/>
                    <circle cx="20.115" cy="13.638" r="1" fill="#000638" mask="url(#00ij7f0vnd)"/>
                    <circle cx="20.115" cy="20.115" r="1" fill="#000638" mask="url(#00ij7f0vnd)"/>
                    <circle cx="20.115" cy="26.593" r="1" fill="#000638" mask="url(#00ij7f0vnd)"/>
                    <circle cx="20.115" cy="33.071" r="1" fill="#000638" mask="url(#00ij7f0vnd)"/>
                    <circle cx="20.115" cy="39.549" r="1" fill="#000638" mask="url(#00ij7f0vnd)"/>
                    <circle cx="20.115" cy="46.027" r="1" fill="#000638" mask="url(#00ij7f0vnd)"/>
                    <circle cx="20.115" cy="52.505" r="1" fill="#000638" mask="url(#00ij7f0vnd)"/>
                    <circle cx="20.115" cy="58.983" r="1" fill="#000638" mask="url(#00ij7f0vnd)"/>
                    <circle cx="20.115" cy="65.461" r="1" fill="#000638" mask="url(#00ij7f0vnd)"/>
                    <circle cx="20.115" cy="71.938" r="1" fill="#000638" mask="url(#00ij7f0vnd)"/>
                    <circle cx="20.115" cy="78.416" r="1" fill="#000638" mask="url(#00ij7f0vnd)"/>
                    <circle cx="20.115" cy="84.894" r="1" fill="#000638" mask="url(#00ij7f0vnd)"/>
                    <circle cx="20.115" cy="91.372" r="1" fill="#000638" mask="url(#00ij7f0vnd)"/>
                    <circle cx="26.593" cy=".682" r="1" fill="#000638" mask="url(#00ij7f0vnd)"/>
                    <circle cx="26.593" cy="7.16" r="1" fill="#000638" mask="url(#00ij7f0vnd)"/>
                    <circle cx="26.593" cy="13.638" r="1" fill="#000638" mask="url(#00ij7f0vnd)"/>
                    <circle cx="26.593" cy="20.115" r="1" fill="#000638" mask="url(#00ij7f0vnd)"/>
                    <circle cx="26.593" cy="26.593" r="1" fill="#000638" mask="url(#00ij7f0vnd)"/>
                    <circle cx="26.593" cy="33.071" r="1" fill="#000638" mask="url(#00ij7f0vnd)"/>
                    <circle cx="26.593" cy="39.549" r="1" fill="#000638" mask="url(#00ij7f0vnd)"/>
                    <circle cx="26.593" cy="46.027" r="1" fill="#000638" mask="url(#00ij7f0vnd)"/>
                    <circle cx="26.593" cy="52.505" r="1" fill="#000638" mask="url(#00ij7f0vnd)"/>
                    <circle cx="26.593" cy="58.983" r="1" fill="#000638" mask="url(#00ij7f0vnd)"/>
                    <circle cx="26.593" cy="65.461" r="1" fill="#000638" mask="url(#00ij7f0vnd)"/>
                    <circle cx="26.593" cy="71.938" r="1" fill="#000638" mask="url(#00ij7f0vnd)"/>
                    <circle cx="26.593" cy="78.416" r="1" fill="#000638" mask="url(#00ij7f0vnd)"/>
                    <circle cx="26.593" cy="84.894" r="1" fill="#000638" mask="url(#00ij7f0vnd)"/>
                    <circle cx="26.593" cy="91.372" r="1" fill="#000638" mask="url(#00ij7f0vnd)"/>
                    <circle cx="33.071" cy=".682" r="1" fill="#000638" mask="url(#00ij7f0vnd)"/>
                    <circle cx="33.071" cy="7.16" r="1" fill="#000638" mask="url(#00ij7f0vnd)"/>
                    <circle cx="33.071" cy="13.638" r="1" fill="#000638" mask="url(#00ij7f0vnd)"/>
                    <circle cx="33.071" cy="20.115" r="1" fill="#000638" mask="url(#00ij7f0vnd)"/>
                    <circle cx="33.071" cy="26.593" r="1" fill="#000638" mask="url(#00ij7f0vnd)"/>
                    <circle cx="33.071" cy="33.071" r="1" fill="#000638" mask="url(#00ij7f0vnd)"/>
                    <circle cx="33.071" cy="39.549" r="1" fill="#000638" mask="url(#00ij7f0vnd)"/>
                    <circle cx="33.071" cy="46.027" r="1" fill="#000638" mask="url(#00ij7f0vnd)"/>
                    <circle cx="33.071" cy="52.505" r="1" fill="#000638" mask="url(#00ij7f0vnd)"/>
                    <circle cx="33.071" cy="58.983" r="1" fill="#000638" mask="url(#00ij7f0vnd)"/>
                    <circle cx="33.071" cy="65.461" r="1" fill="#000638" mask="url(#00ij7f0vnd)"/>
                    <circle cx="33.071" cy="71.938" r="1" fill="#000638" mask="url(#00ij7f0vnd)"/>
                    <circle cx="33.071" cy="78.416" r="1" fill="#000638" mask="url(#00ij7f0vnd)"/>
                    <circle cx="33.071" cy="84.894" r="1" fill="#000638" mask="url(#00ij7f0vnd)"/>
                    <circle cx="33.071" cy="91.372" r="1" fill="#000638" mask="url(#00ij7f0vnd)"/>
                    <circle cx="39.549" cy=".682" r="1" fill="#000638" mask="url(#00ij7f0vnd)"/>
                    <circle cx="39.549" cy="7.16" r="1" fill="#000638" mask="url(#00ij7f0vnd)"/>
                    <circle cx="39.549" cy="13.638" r="1" fill="#000638" mask="url(#00ij7f0vnd)"/>
                    <circle cx="39.549" cy="20.115" r="1" fill="#000638" mask="url(#00ij7f0vnd)"/>
                    <circle cx="39.549" cy="26.593" r="1" fill="#000638" mask="url(#00ij7f0vnd)"/>
                    <circle cx="39.549" cy="33.071" r="1" fill="#000638" mask="url(#00ij7f0vnd)"/>
                    <circle cx="39.549" cy="39.549" r="1" fill="#000638" mask="url(#00ij7f0vnd)"/>
                    <circle cx="39.549" cy="46.027" r="1" fill="#000638" mask="url(#00ij7f0vnd)"/>
                    <circle cx="39.549" cy="52.505" r="1" fill="#000638" mask="url(#00ij7f0vnd)"/>
                    <circle cx="39.549" cy="58.983" r="1" fill="#000638" mask="url(#00ij7f0vnd)"/>
                    <circle cx="39.549" cy="65.461" r="1" fill="#000638" mask="url(#00ij7f0vnd)"/>
                    <circle cx="39.549" cy="71.938" r="1" fill="#000638" mask="url(#00ij7f0vnd)"/>
                    <circle cx="39.549" cy="78.416" r="1" fill="#000638" mask="url(#00ij7f0vnd)"/>
                    <circle cx="39.549" cy="84.894" r="1" fill="#000638" mask="url(#00ij7f0vnd)"/>
                    <circle cx="39.549" cy="91.372" r="1" fill="#000638" mask="url(#00ij7f0vnd)"/>
                    <circle cx="46.027" cy=".682" r="1" fill="#000638" mask="url(#00ij7f0vnd)"/>
                    <circle cx="46.027" cy="7.16" r="1" fill="#000638" mask="url(#00ij7f0vnd)"/>
                    <circle cx="46.027" cy="13.638" r="1" fill="#000638" mask="url(#00ij7f0vnd)"/>
                    <circle cx="46.027" cy="20.115" r="1" fill="#000638" mask="url(#00ij7f0vnd)"/>
                    <circle cx="46.027" cy="26.593" r="1" fill="#000638" mask="url(#00ij7f0vnd)"/>
                    <circle cx="46.027" cy="33.071" r="1" fill="#000638" mask="url(#00ij7f0vnd)"/>
                    <circle cx="46.027" cy="39.549" r="1" fill="#000638" mask="url(#00ij7f0vnd)"/>
                    <circle cx="46.027" cy="46.027" r="1" fill="#000638" mask="url(#00ij7f0vnd)"/>
                    <circle cx="46.027" cy="52.505" r="1" fill="#000638" mask="url(#00ij7f0vnd)"/>
                    <circle cx="46.027" cy="58.983" r="1" fill="#000638" mask="url(#00ij7f0vnd)"/>
                    <circle cx="46.027" cy="65.461" r="1" fill="#000638" mask="url(#00ij7f0vnd)"/>
                    <circle cx="46.027" cy="71.938" r="1" fill="#000638" mask="url(#00ij7f0vnd)"/>
                    <circle cx="46.027" cy="78.416" r="1" fill="#000638" mask="url(#00ij7f0vnd)"/>
                    <circle cx="46.027" cy="84.894" r="1" fill="#000638" mask="url(#00ij7f0vnd)"/>
                    <circle cx="46.027" cy="91.372" r="1" fill="#000638" mask="url(#00ij7f0vnd)"/>
                    <circle cx="52.505" cy=".682" r="1" fill="#000638" mask="url(#00ij7f0vnd)"/>
                    <circle cx="52.505" cy="7.16" r="1" fill="#000638" mask="url(#00ij7f0vnd)"/>
                    <circle cx="52.505" cy="13.638" r="1" fill="#000638" mask="url(#00ij7f0vnd)"/>
                    <circle cx="52.505" cy="20.115" r="1" fill="#000638" mask="url(#00ij7f0vnd)"/>
                    <circle cx="52.505" cy="26.593" r="1" fill="#000638" mask="url(#00ij7f0vnd)"/>
                    <circle cx="52.505" cy="33.071" r="1" fill="#000638" mask="url(#00ij7f0vnd)"/>
                    <circle cx="52.505" cy="39.549" r="1" fill="#000638" mask="url(#00ij7f0vnd)"/>
                    <circle cx="52.505" cy="46.027" r="1" fill="#000638" mask="url(#00ij7f0vnd)"/>
                    <circle cx="52.505" cy="52.505" r="1" fill="#000638" mask="url(#00ij7f0vnd)"/>
                    <circle cx="52.505" cy="58.983" r="1" fill="#000638" mask="url(#00ij7f0vnd)"/>
                    <circle cx="52.505" cy="65.461" r="1" fill="#000638" mask="url(#00ij7f0vnd)"/>
                    <circle cx="52.505" cy="71.938" r="1" fill="#000638" mask="url(#00ij7f0vnd)"/>
                    <circle cx="52.505" cy="78.416" r="1" fill="#000638" mask="url(#00ij7f0vnd)"/>
                    <circle cx="52.505" cy="84.894" r="1" fill="#000638" mask="url(#00ij7f0vnd)"/>
                    <circle cx="52.505" cy="91.372" r="1" fill="#000638" mask="url(#00ij7f0vnd)"/>
                    <circle cx="58.983" cy=".682" r="1" fill="#000638" mask="url(#00ij7f0vnd)"/>
                    <circle cx="58.983" cy="7.16" r="1" fill="#000638" mask="url(#00ij7f0vnd)"/>
                    <circle cx="58.983" cy="13.638" r="1" fill="#000638" mask="url(#00ij7f0vnd)"/>
                    <circle cx="58.983" cy="20.115" r="1" fill="#000638" mask="url(#00ij7f0vnd)"/>
                    <circle cx="58.983" cy="26.593" r="1" fill="#000638" mask="url(#00ij7f0vnd)"/>
                    <circle cx="58.983" cy="33.071" r="1" fill="#000638" mask="url(#00ij7f0vnd)"/>
                    <circle cx="58.983" cy="39.549" r="1" fill="#000638" mask="url(#00ij7f0vnd)"/>
                    <circle cx="58.983" cy="46.027" r="1" fill="#000638" mask="url(#00ij7f0vnd)"/>
                    <circle cx="58.983" cy="52.505" r="1" fill="#000638" mask="url(#00ij7f0vnd)"/>
                    <circle cx="58.983" cy="58.983" r="1" fill="#000638" mask="url(#00ij7f0vnd)"/>
                    <circle cx="58.983" cy="65.461" r="1" fill="#000638" mask="url(#00ij7f0vnd)"/>
                    <circle cx="58.983" cy="71.938" r="1" fill="#000638" mask="url(#00ij7f0vnd)"/>
                    <circle cx="58.983" cy="78.416" r="1" fill="#000638" mask="url(#00ij7f0vnd)"/>
                    <circle cx="58.983" cy="84.894" r="1" fill="#000638" mask="url(#00ij7f0vnd)"/>
                    <circle cx="58.983" cy="91.372" r="1" fill="#000638" mask="url(#00ij7f0vnd)"/>
                    <circle cx="65.461" cy=".682" r="1" fill="#000638" mask="url(#00ij7f0vnd)"/>
                    <circle cx="65.461" cy="7.16" r="1" fill="#000638" mask="url(#00ij7f0vnd)"/>
                    <circle cx="65.461" cy="13.638" r="1" fill="#000638" mask="url(#00ij7f0vnd)"/>
                    <circle cx="65.461" cy="20.115" r="1" fill="#000638" mask="url(#00ij7f0vnd)"/>
                    <circle cx="65.461" cy="26.593" r="1" fill="#000638" mask="url(#00ij7f0vnd)"/>
                    <circle cx="65.461" cy="33.071" r="1" fill="#000638" mask="url(#00ij7f0vnd)"/>
                    <circle cx="65.461" cy="39.549" r="1" fill="#000638" mask="url(#00ij7f0vnd)"/>
                    <circle cx="65.461" cy="46.027" r="1" fill="#000638" mask="url(#00ij7f0vnd)"/>
                    <circle cx="65.461" cy="52.505" r="1" fill="#000638" mask="url(#00ij7f0vnd)"/>
                    <circle cx="65.461" cy="58.983" r="1" fill="#000638" mask="url(#00ij7f0vnd)"/>
                    <circle cx="65.461" cy="65.461" r="1" fill="#000638" mask="url(#00ij7f0vnd)"/>
                    <circle cx="65.461" cy="71.938" r="1" fill="#000638" mask="url(#00ij7f0vnd)"/>
                    <circle cx="65.461" cy="78.416" r="1" fill="#000638" mask="url(#00ij7f0vnd)"/>
                    <circle cx="65.461" cy="84.894" r="1" fill="#000638" mask="url(#00ij7f0vnd)"/>
                    <circle cx="65.461" cy="91.372" r="1" fill="#000638" mask="url(#00ij7f0vnd)"/>
                    <circle cx="71.938" cy=".682" r="1" fill="#000638" mask="url(#00ij7f0vnd)"/>
                    <circle cx="71.938" cy="7.16" r="1" fill="#000638" mask="url(#00ij7f0vnd)"/>
                    <circle cx="71.938" cy="13.638" r="1" fill="#000638" mask="url(#00ij7f0vnd)"/>
                    <circle cx="71.938" cy="20.115" r="1" fill="#000638" mask="url(#00ij7f0vnd)"/>
                    <circle cx="71.938" cy="26.593" r="1" fill="#000638" mask="url(#00ij7f0vnd)"/>
                    <circle cx="71.938" cy="33.071" r="1" fill="#000638" mask="url(#00ij7f0vnd)"/>
                    <circle cx="71.938" cy="39.549" r="1" fill="#000638" mask="url(#00ij7f0vnd)"/>
                    <circle cx="71.938" cy="46.027" r="1" fill="#000638" mask="url(#00ij7f0vnd)"/>
                    <circle cx="71.938" cy="52.505" r="1" fill="#000638" mask="url(#00ij7f0vnd)"/>
                    <circle cx="71.938" cy="58.983" r="1" fill="#000638" mask="url(#00ij7f0vnd)"/>
                    <circle cx="71.938" cy="65.461" r="1" fill="#000638" mask="url(#00ij7f0vnd)"/>
                    <circle cx="71.938" cy="71.938" r="1" fill="#000638" mask="url(#00ij7f0vnd)"/>
                    <circle cx="71.938" cy="78.416" r="1" fill="#000638" mask="url(#00ij7f0vnd)"/>
                    <circle cx="71.938" cy="84.894" r="1" fill="#000638" mask="url(#00ij7f0vnd)"/>
                    <circle cx="71.938" cy="91.372" r="1" fill="#000638" mask="url(#00ij7f0vnd)"/>
                    <circle cx="78.416" cy=".682" r="1" fill="#000638" mask="url(#00ij7f0vnd)"/>
                    <circle cx="78.416" cy="7.16" r="1" fill="#000638" mask="url(#00ij7f0vnd)"/>
                    <circle cx="78.416" cy="13.638" r="1" fill="#000638" mask="url(#00ij7f0vnd)"/>
                    <circle cx="78.416" cy="20.115" r="1" fill="#000638" mask="url(#00ij7f0vnd)"/>
                    <circle cx="78.416" cy="26.593" r="1" fill="#000638" mask="url(#00ij7f0vnd)"/>
                    <circle cx="78.416" cy="33.071" r="1" fill="#000638" mask="url(#00ij7f0vnd)"/>
                    <circle cx="78.416" cy="39.549" r="1" fill="#000638" mask="url(#00ij7f0vnd)"/>
                    <circle cx="78.416" cy="46.027" r="1" fill="#000638" mask="url(#00ij7f0vnd)"/>
                    <circle cx="78.416" cy="52.505" r="1" fill="#000638" mask="url(#00ij7f0vnd)"/>
                    <circle cx="78.416" cy="58.983" r="1" fill="#000638" mask="url(#00ij7f0vnd)"/>
                    <circle cx="78.416" cy="65.461" r="1" fill="#000638" mask="url(#00ij7f0vnd)"/>
                    <circle cx="78.416" cy="71.938" r="1" fill="#000638" mask="url(#00ij7f0vnd)"/>
                    <circle cx="78.416" cy="78.416" r="1" fill="#000638" mask="url(#00ij7f0vnd)"/>
                    <circle cx="78.416" cy="84.894" r="1" fill="#000638" mask="url(#00ij7f0vnd)"/>
                    <circle cx="78.416" cy="91.372" r="1" fill="#000638" mask="url(#00ij7f0vnd)"/>
                    <circle cx="84.894" cy=".682" r="1" fill="#000638" mask="url(#00ij7f0vnd)"/>
                    <circle cx="84.894" cy="7.16" r="1" fill="#000638" mask="url(#00ij7f0vnd)"/>
                    <circle cx="84.894" cy="13.638" r="1" fill="#000638" mask="url(#00ij7f0vnd)"/>
                    <circle cx="84.894" cy="20.115" r="1" fill="#000638" mask="url(#00ij7f0vnd)"/>
                    <circle cx="84.894" cy="26.593" r="1" fill="#000638" mask="url(#00ij7f0vnd)"/>
                    <circle cx="84.894" cy="33.071" r="1" fill="#000638" mask="url(#00ij7f0vnd)"/>
                    <circle cx="84.894" cy="39.549" r="1" fill="#000638" mask="url(#00ij7f0vnd)"/>
                    <circle cx="84.894" cy="46.027" r="1" fill="#000638" mask="url(#00ij7f0vnd)"/>
                    <circle cx="84.894" cy="52.505" r="1" fill="#000638" mask="url(#00ij7f0vnd)"/>
                    <circle cx="84.894" cy="58.983" r="1" fill="#000638" mask="url(#00ij7f0vnd)"/>
                    <circle cx="84.894" cy="65.461" r="1" fill="#000638" mask="url(#00ij7f0vnd)"/>
                    <circle cx="84.894" cy="71.938" r="1" fill="#000638" mask="url(#00ij7f0vnd)"/>
                    <circle cx="84.894" cy="78.416" r="1" fill="#000638" mask="url(#00ij7f0vnd)"/>
                    <circle cx="84.894" cy="84.894" r="1" fill="#000638" mask="url(#00ij7f0vnd)"/>
                    <circle cx="84.894" cy="91.372" r="1" fill="#000638" mask="url(#00ij7f0vnd)"/>
                    <circle cx="91.372" cy=".682" r="1" fill="#000638" mask="url(#00ij7f0vnd)"/>
                    <circle cx="91.372" cy="7.16" r="1" fill="#000638" mask="url(#00ij7f0vnd)"/>
                    <circle cx="91.372" cy="13.638" r="1" fill="#000638" mask="url(#00ij7f0vnd)"/>
                    <circle cx="91.372" cy="20.115" r="1" fill="#000638" mask="url(#00ij7f0vnd)"/>
                    <circle cx="91.372" cy="26.593" r="1" fill="#000638" mask="url(#00ij7f0vnd)"/>
                    <circle cx="91.372" cy="33.071" r="1" fill="#000638" mask="url(#00ij7f0vnd)"/>
                    <circle cx="91.372" cy="39.549" r="1" fill="#000638" mask="url(#00ij7f0vnd)"/>
                    <circle cx="91.372" cy="46.027" r="1" fill="#000638" mask="url(#00ij7f0vnd)"/>
                    <circle cx="91.372" cy="52.505" r="1" fill="#000638" mask="url(#00ij7f0vnd)"/>
                    <circle cx="91.372" cy="58.983" r="1" fill="#000638" mask="url(#00ij7f0vnd)"/>
                    <circle cx="91.372" cy="65.461" r="1" fill="#000638" mask="url(#00ij7f0vnd)"/>
                    <circle cx="91.372" cy="71.938" r="1" fill="#000638" mask="url(#00ij7f0vnd)"/>
                    <circle cx="91.372" cy="78.416" r="1" fill="#000638" mask="url(#00ij7f0vnd)"/>
                    <circle cx="91.372" cy="84.894" r="1" fill="#000638" mask="url(#00ij7f0vnd)"/>
                    <circle cx="91.372" cy="91.372" r="1" fill="#000638" mask="url(#00ij7f0vnd)"/>
                </g>
                <circle cx="15.5" cy="15.5" r="11.5" stroke="#FFAD1D" stroke-width="8"/>
                <circle cx="91.5" cy="438.5" r="11.5" stroke="#FFAD1D" stroke-width="8"/>
                <path fill="#000638" d="M194 31l-.001 4.999L199 36v4l-5.001-.001L194 45h-4l-.001-5.001L185 40v-4l4.999-.001L190 31h4z"/>
            </g>
        </g>
    </g>
</svg>
