<svg width="354" height="375" viewBox="0 0 354 375" fill="none" xmlns="http://www.w3.org/2000/svg">
<g clip-path="url(#clip0_1407_20703)">
<ellipse cx="141.785" cy="174.024" rx="76.7047" ry="76.7047" fill="#F2F3F5"/>
<path fill-rule="evenodd" clip-rule="evenodd" d="M10.5217 174.447C10.5217 171.748 12.711 169.562 15.4093 169.562C18.1077 169.562 20.297 171.748 20.297 174.447C20.297 177.146 18.1077 179.332 15.4093 179.332C12.711 179.332 10.5217 177.146 10.5217 174.447ZM15.4093 172.276C14.2077 172.276 13.2355 173.249 13.2355 174.447C13.2355 175.645 14.2077 176.618 15.4093 176.618C16.6109 176.618 17.5831 175.645 17.5831 174.447C17.5831 173.249 16.6109 172.276 15.4093 172.276Z" fill="#000638"/>
<path fill-rule="evenodd" clip-rule="evenodd" d="M34.0315 176.614C30.3567 175.838 25.9303 175.8 22.467 176.156C21.7215 176.233 21.055 175.691 20.9783 174.945C20.9017 174.2 21.4438 173.533 22.1893 173.457C25.8477 173.08 30.5693 173.109 34.5924 173.959C36.6019 174.384 38.5152 175.029 40.0455 175.989C41.5858 176.956 42.8265 178.303 43.2645 180.128C43.6467 181.721 43.5852 183.143 43.1633 184.383C42.743 185.619 41.9938 186.592 41.1279 187.336C39.4402 188.788 37.2392 189.441 35.723 189.625C30.5267 190.448 24.3974 190.683 19.4988 189.555C17.045 188.99 14.7871 188.058 13.1217 186.582C11.4123 185.066 10.3859 183.023 10.3859 180.445C10.3859 179.695 10.9934 179.088 11.7428 179.088C12.4923 179.088 13.0998 179.695 13.0998 180.445C13.0998 182.214 13.7688 183.528 14.9222 184.551C16.1197 185.613 17.892 186.401 20.1077 186.911C24.5402 187.931 30.2952 187.739 35.3229 186.941L35.3493 186.937L35.3759 186.933C36.5455 186.795 38.1931 186.281 39.3584 185.279C39.9241 184.792 40.356 184.209 40.5939 183.51C40.8302 182.815 40.9038 181.921 40.6256 180.761C40.4032 179.834 39.7518 179.009 38.6029 178.288C37.4439 177.561 35.8708 177.003 34.0315 176.614Z" fill="#000638"/>
<path fill-rule="evenodd" clip-rule="evenodd" d="M17.5832 182.317C17.5832 181.117 18.5565 180.146 19.7549 180.146C20.9532 180.146 21.9266 181.117 21.9266 182.317C21.9266 183.517 20.9532 184.488 19.7549 184.488C18.5565 184.488 17.5832 183.517 17.5832 182.317ZM19.7549 182.86C20.0533 182.86 20.297 182.618 20.297 182.317C20.297 182.017 20.0533 181.775 19.7549 181.775C19.4565 181.775 19.2128 182.016 19.2128 182.317C19.2128 182.618 19.4565 182.86 19.7549 182.86Z" fill="#000638"/>
<path fill-rule="evenodd" clip-rule="evenodd" d="M26.6807 182.86C26.7602 182.86 27.087 182.756 27.087 182.317C27.087 181.878 26.7602 181.775 26.6807 181.775C26.6009 181.775 26.2742 181.878 26.2742 182.317C26.2742 182.756 26.6009 182.86 26.6807 182.86ZM24.3732 182.317C24.3732 181.087 25.4375 180.146 26.6807 180.146C27.9241 180.146 28.988 181.088 28.988 182.317C28.988 183.547 27.9241 184.488 26.6807 184.488C25.4375 184.488 24.3732 183.547 24.3732 182.317Z" fill="#000638"/>
<path fill-rule="evenodd" clip-rule="evenodd" d="M31.4344 182.317C31.4344 181.117 32.4082 180.146 33.6061 180.146C34.8046 180.146 35.7778 181.117 35.7778 182.317C35.7778 183.517 34.8046 184.488 33.6061 184.488C32.4082 184.488 31.4344 183.518 31.4344 182.317ZM33.6061 182.86C33.9045 182.86 34.1483 182.618 34.1483 182.317C34.1483 182.016 33.9045 181.775 33.6061 181.775C33.3077 181.775 33.064 182.017 33.064 182.317C33.064 182.618 33.3077 182.86 33.6061 182.86Z" fill="#000638"/>
<path fill-rule="evenodd" clip-rule="evenodd" d="M278.722 75.3919C278.722 72.8433 280.789 70.7784 283.338 70.7784C285.887 70.7784 287.954 72.8433 287.954 75.3919C287.954 77.9405 285.887 80.0054 283.338 80.0054C280.789 80.0054 278.722 77.9405 278.722 75.3919ZM283.338 73.4922C282.286 73.4922 281.436 74.3436 281.436 75.3919C281.436 76.4402 282.286 77.2916 283.338 77.2916C284.39 77.2916 285.24 76.4402 285.24 75.3919C285.24 74.3436 284.39 73.4922 283.338 73.4922Z" fill="#000638"/>
<path fill-rule="evenodd" clip-rule="evenodd" d="M288.385 72.5423C288.385 71.7929 288.993 71.1854 289.742 71.1854H302.165C303.458 71.1854 304.962 71.2958 306.031 72.3796C307.078 73.4408 307.373 75.0905 307.373 77.1401C307.373 78.4842 307.369 79.9571 307.366 81.3948C307.359 84.1619 307.352 86.7983 307.373 88.1339L307.373 88.135C307.387 89.0684 307.165 90.1573 306.448 91.0732C305.706 92.0201 304.562 92.6187 303.064 92.7628C300.577 93.0022 290.901 92.8638 286.452 92.7691C285.405 92.7662 283.946 92.476 282.71 91.5408C281.404 90.5521 280.487 88.9436 280.487 86.6228V82.3124C280.487 81.563 281.095 80.9555 281.844 80.9555C282.594 80.9555 283.201 81.563 283.201 82.3124V86.6228C283.201 88.1459 283.761 88.9321 284.348 89.3771C285.001 89.8709 285.844 90.0552 286.467 90.0552H286.481L286.496 90.0555C291.042 90.1525 300.518 90.2816 302.804 90.0615C303.695 89.9758 304.104 89.6644 304.311 89.3996C304.543 89.1041 304.667 88.68 304.66 88.1772" fill="#000638"/>
<path fill-rule="evenodd" clip-rule="evenodd" d="M286.969 78.563C287.391 77.9437 288.236 77.7837 288.855 78.2056L294.83 82.2764C295.449 82.6983 295.609 83.5424 295.187 84.1618C294.765 84.7811 293.921 84.9411 293.302 84.5192L287.327 80.4484C286.708 80.0265 286.548 79.1824 286.969 78.563Z" fill="#000638"/>
<path fill-rule="evenodd" clip-rule="evenodd" d="M305.926 72.4356C306.435 72.9859 306.401 73.8444 305.851 74.3531L294.987 84.3943C294.437 84.9029 293.578 84.8692 293.069 84.3188C292.561 83.7685 292.595 82.91 293.145 82.4013L304.009 72.3601C304.559 71.8515 305.418 71.8852 305.926 72.4356Z" fill="#000638"/>
<path fill-rule="evenodd" clip-rule="evenodd" d="M295.863 79.9931C296.395 79.4647 297.254 79.4671 297.782 79.9985L300.751 82.9837L300.751 82.9837L303.719 85.969C304.248 86.5004 304.245 87.3595 303.714 87.8879C303.183 88.4164 302.323 88.414 301.795 87.8826L298.826 84.8973L298.826 84.8973L295.858 81.9121C295.329 81.3807 295.332 80.5216 295.863 79.9931Z" fill="#000638"/>
<path fill-rule="evenodd" clip-rule="evenodd" d="M291.102 79.8612C291.706 80.3046 291.836 81.1538 291.393 81.758L287.012 87.7284C286.569 88.3326 285.72 88.463 285.115 88.0197C284.511 87.5764 284.381 86.7272 284.824 86.123L289.205 80.1525C289.648 79.5483 290.497 79.4179 291.102 79.8612Z" fill="#000638"/>
<path fill-rule="evenodd" clip-rule="evenodd" d="M74.3095 231.853C76.0586 233.975 77.1802 236.862 77.6958 238.85C77.8838 239.576 77.4482 240.316 76.7228 240.504C75.9973 240.693 75.2568 240.257 75.0688 239.531C74.8253 238.592 74.4347 237.46 73.9131 236.349C73.9276 236.834 73.8761 237.349 73.7474 237.891L72.4273 237.577L73.7474 237.891C73.4861 238.989 73.0215 239.875 72.3341 240.503C71.6362 241.141 70.8144 241.417 70.025 241.469C68.5317 241.569 67.09 240.885 66.2471 240.315L66.188 240.275L66.1333 240.229C64.9691 239.248 63.4234 237.511 62.9486 235.526C62.6995 234.485 62.7368 233.326 63.3382 232.221C63.9301 231.133 64.9802 230.258 66.4453 229.591L67.0076 230.826L66.4453 229.591C68.044 228.863 69.5817 228.831 70.9741 229.338C72.3234 229.829 73.4291 230.784 74.3095 231.853ZM70.0464 231.888C69.3503 231.635 68.5492 231.615 67.57 232.061L67.57 232.061C66.4569 232.568 65.9494 233.1 65.7221 233.518C65.5045 233.918 65.4611 234.364 65.588 234.895C65.8598 236.031 66.8585 237.276 67.8257 238.105C67.8607 238.128 67.8965 238.151 67.9329 238.173C67.1296 237.414 66.741 236.52 66.7191 235.602C66.6953 234.602 67.1124 233.763 67.5265 233.247C68.0572 232.471 68.8814 232.109 69.6828 232.058C69.9704 232.04 70.2591 232.06 70.5424 232.115C70.3776 232.024 70.2122 231.948 70.0464 231.888ZM70.0683 238.729C70.2231 238.633 70.3609 238.504 70.4705 238.344C70.8941 237.725 70.7365 236.881 70.1183 236.457C69.4809 236.02 69.4355 235.678 69.4322 235.538C69.4267 235.306 69.544 235.061 69.6524 234.934L69.7135 234.862L69.7628 234.784C69.7722 234.78 69.8002 234.77 69.8537 234.766C69.9903 234.758 70.2235 234.802 70.4747 234.971C70.9161 235.268 71.4153 235.967 71.1072 237.262L71.1072 237.262C70.9355 237.984 70.687 238.332 70.5029 238.5C70.3795 238.613 70.2387 238.688 70.0683 238.729Z" fill="#000638"/>
<path fill-rule="evenodd" clip-rule="evenodd" d="M183.255 176.595C184.005 176.595 184.612 177.203 184.612 177.952V201.02C184.612 201.769 184.005 202.377 183.255 202.377C182.506 202.377 181.898 201.769 181.898 201.02V177.952C181.898 177.203 182.506 176.595 183.255 176.595Z" fill="#000638"/>
<path fill-rule="evenodd" clip-rule="evenodd" d="M200.637 179.309C201.387 179.309 201.994 179.916 201.994 180.666V202.648C201.994 203.397 201.387 204.005 200.637 204.005C199.888 204.005 199.28 203.397 199.28 202.648V180.666C199.28 179.916 199.888 179.309 200.637 179.309Z" fill="#000638"/>
<path d="M238.199 240.143C227.489 240.487 180.188 263.369 157.876 274.767C155.976 287.327 163.994 296.345 168.24 299.284C190.48 292.832 236.126 279.757 240.79 279.068C245.454 278.38 250.074 275.054 251.802 273.477C263.894 259.369 254.969 247.383 248.995 243.154C244.742 240.143 241.071 240.05 238.199 240.143Z" fill="#000638"/>
<path d="M137.88 236.942C145.468 237.448 178.57 250.267 194.255 256.986L158.385 274.896C142.332 279.6 132.471 278.05 129.459 277.036C112.075 268.667 118.886 248.021 125.793 240.373C130.245 236.587 135.161 236.761 137.88 236.942Z" fill="#000638"/>
<path fill-rule="evenodd" clip-rule="evenodd" d="M221.111 282.413C221.435 281.738 222.246 281.453 222.921 281.778C227.922 284.179 230.702 287.367 232.139 290.072L232.164 290.118L232.184 290.165C233.746 293.736 233.229 296.942 231.096 298.959C229.034 300.909 225.803 301.412 222.605 300.404L222.604 300.404C220.976 299.89 219.894 299.438 218.981 298.901C218.142 298.408 217.484 297.862 216.743 297.247C216.687 297.201 216.631 297.154 216.575 297.107L216.574 297.107C215.679 296.365 211.676 292.646 207.166 288.314C206.626 287.795 206.608 286.936 207.128 286.396C207.647 285.855 208.506 285.838 209.046 286.357C213.583 290.714 217.503 294.352 218.306 295.017C218.346 295.051 218.386 295.083 218.425 295.116C219.214 295.77 219.712 296.183 220.357 296.562C221.024 296.954 221.892 297.334 223.421 297.816C225.934 298.608 228.06 298.095 229.231 296.988C230.325 295.953 230.916 294.074 229.718 291.3C228.547 289.118 226.2 286.362 221.747 284.224C221.071 283.9 220.786 283.089 221.111 282.413Z" fill="#000638"/>
<path fill-rule="evenodd" clip-rule="evenodd" d="M162.046 291.831C162.62 292.314 162.693 293.17 162.21 293.743C158.638 297.987 154.857 299.883 151.879 300.6L151.828 300.613L151.777 300.621C147.93 301.242 144.954 299.941 143.533 297.373C142.159 294.89 142.478 291.635 144.252 288.79L144.252 288.789C145.156 287.341 145.864 286.406 146.611 285.656C147.298 284.966 147.991 284.465 148.771 283.901C148.83 283.859 148.889 283.816 148.949 283.773L148.949 283.772C149.891 283.09 154.491 280.142 159.811 276.855C160.449 276.462 161.285 276.659 161.679 277.297C162.072 277.934 161.875 278.77 161.237 279.164C155.886 282.47 151.385 285.359 150.541 285.97C150.499 286.001 150.457 286.031 150.416 286.061C149.585 286.663 149.061 287.042 148.533 287.572C147.987 288.12 147.403 288.866 146.555 290.225C145.161 292.462 145.127 294.648 145.907 296.059C146.636 297.376 148.308 298.417 151.294 297.95C153.698 297.36 156.953 295.774 160.134 291.995C160.617 291.422 161.473 291.349 162.046 291.831Z" fill="#000638"/>
<path d="M131.265 174.263L134.906 240.384C134.985 241.823 136.176 242.949 137.618 242.949H239.204C240.704 242.949 241.92 241.734 241.92 240.235V172.697C241.92 171.184 240.681 169.963 239.167 169.983L133.94 171.401C132.396 171.421 131.18 172.723 131.265 174.263Z" fill="#000638"/>
<path d="M239.34 243.898H136.948C135.523 243.898 134.368 245.053 134.368 246.476C134.368 247.9 135.523 249.055 136.948 249.055H239.34C240.765 249.055 241.92 247.9 241.92 246.476C241.92 245.053 240.765 243.898 239.34 243.898Z" fill="#000638"/>
<path fill-rule="evenodd" clip-rule="evenodd" d="M238.201 171.498C230.15 149.473 209.92 142.543 200.928 142.672C200.179 142.683 199.563 142.084 199.552 141.335C199.541 140.585 200.14 139.969 200.889 139.958C210.819 139.816 232.234 147.269 240.75 170.566C241.007 171.27 240.645 172.049 239.941 172.306C239.237 172.563 238.458 172.201 238.201 171.498Z" fill="#000638"/>
<path fill-rule="evenodd" clip-rule="evenodd" d="M181.464 140.92C181.607 141.656 181.127 142.368 180.391 142.511C169.739 144.587 161.986 147.877 155.909 152.754C149.832 157.632 145.326 164.181 141.305 172.954C140.993 173.635 140.187 173.934 139.506 173.622C138.825 173.31 138.526 172.505 138.838 171.823C142.965 162.82 147.693 155.868 154.211 150.637C160.729 145.405 168.933 141.979 179.872 139.848C180.608 139.704 181.32 140.184 181.464 140.92Z" fill="#000638"/>
<path fill-rule="evenodd" clip-rule="evenodd" d="M258.371 152.659C259.013 153.044 259.221 153.878 258.836 154.52L253.539 163.34C253.154 163.983 252.32 164.191 251.678 163.805C251.035 163.419 250.827 162.586 251.213 161.943L256.509 153.123C256.895 152.481 257.728 152.273 258.371 152.659Z" fill="#000638"/>
<path fill-rule="evenodd" clip-rule="evenodd" d="M265.914 158.248C266.392 158.824 266.313 159.68 265.736 160.158L258.539 166.129C257.962 166.607 257.106 166.527 256.628 165.951C256.149 165.374 256.229 164.518 256.806 164.04L264.003 158.07C264.58 157.591 265.435 157.671 265.914 158.248Z" fill="#000638"/>
<path fill-rule="evenodd" clip-rule="evenodd" d="M265.623 166.805C266.246 167.221 266.414 168.064 265.998 168.687C264.933 170.284 263.299 170.848 261.873 170.956C260.469 171.063 259.118 170.749 258.269 170.421C257.57 170.15 257.223 169.365 257.493 168.666C257.763 167.967 258.549 167.619 259.248 167.89C259.803 168.104 260.747 168.32 261.667 168.25C262.566 168.182 263.285 167.864 263.741 167.181C264.157 166.557 264.999 166.389 265.623 166.805Z" fill="#000638"/>
<path fill-rule="evenodd" clip-rule="evenodd" d="M110.746 151.603C111.284 151.082 112.143 151.095 112.665 151.634L120.812 160.047C121.334 160.585 121.32 161.444 120.782 161.965C120.243 162.487 119.384 162.473 118.863 161.935L110.715 153.522C110.194 152.983 110.207 152.124 110.746 151.603Z" fill="#000638"/>
<path fill-rule="evenodd" clip-rule="evenodd" d="M122.742 145.749C123.441 145.478 124.227 145.825 124.498 146.524L129.387 159.143C129.657 159.842 129.31 160.628 128.612 160.899C127.913 161.17 127.127 160.823 126.856 160.124L121.967 147.504C121.697 146.806 122.044 146.02 122.742 145.749Z" fill="#000638"/>
<path fill-rule="evenodd" clip-rule="evenodd" d="M110.42 162.954C110.685 162.253 111.468 161.899 112.169 162.163L118.28 164.47C118.981 164.735 119.335 165.518 119.07 166.219C118.806 166.92 118.023 167.274 117.322 167.009L111.211 164.702C110.51 164.438 110.156 163.655 110.42 162.954Z" fill="#000638"/>
<path fill-rule="evenodd" clip-rule="evenodd" d="M244.177 185.109C244.809 184.705 245.648 184.891 246.051 185.522C248.556 189.445 251.404 193.986 252.16 199.849C252.922 205.757 251.546 212.81 246.066 221.808C245.676 222.448 244.842 222.651 244.202 222.261C243.561 221.871 243.359 221.036 243.748 220.396C248.997 211.777 250.132 205.34 249.469 200.196C248.799 195.005 246.284 190.93 243.764 186.983C243.36 186.351 243.545 185.512 244.177 185.109Z" fill="#000638"/>
<path d="M201.045 141.994C202.267 138.466 201.153 136.092 200.067 135.639C193.549 141.61 183.663 139.393 179.996 135.775C178.692 136.969 179.453 140.501 179.996 141.587C187.058 149.402 197.107 145.024 201.045 141.994Z" fill="#000638"/>
<path fill-rule="evenodd" clip-rule="evenodd" d="M205.459 149.105C206.028 149.593 206.093 150.45 205.605 151.019L199.635 157.978C196.981 161.073 192.647 162.13 188.865 160.606L183.667 158.512C180.657 157.299 177.209 158.384 175.437 161.101L173.256 164.445C172.847 165.073 172.006 165.25 171.379 164.841C170.751 164.432 170.574 163.591 170.983 162.963L173.164 159.618C173.164 159.618 173.164 159.618 173.164 159.618C175.644 155.815 180.469 154.297 184.681 155.994C184.682 155.994 184.681 155.994 184.681 155.994L189.879 158.088C192.582 159.178 195.679 158.422 197.575 156.211C197.575 156.211 197.575 156.211 197.575 156.211L203.545 149.252C204.033 148.683 204.89 148.617 205.459 149.105Z" fill="#000638"/>
<path fill-rule="evenodd" clip-rule="evenodd" d="M130.146 190.001C130.835 190.294 131.157 191.091 130.864 191.78C129.909 194.028 128.839 197.956 128.809 202.284C128.78 206.605 129.787 211.202 132.84 214.954C133.313 215.535 133.226 216.389 132.644 216.863C132.063 217.336 131.209 217.248 130.736 216.667C127.162 212.276 126.064 206.991 126.096 202.266C126.128 197.547 127.284 193.266 128.366 190.719C128.659 190.03 129.456 189.708 130.146 190.001Z" fill="#000638"/>
<path d="M219.769 86.5243C216.782 97.244 215.288 98.1938 210.942 102.943C210.942 98.2495 210.135 90.3712 210.135 87.0907C195.907 87.0907 183.899 81.2869 179.673 78.385C179.825 88.2262 170.591 94.661 170.591 94.661C170.591 94.661 171.915 98.6354 172.672 107.531C173.278 114.646 171.537 113.271 170.591 111.694C167.867 102.913 163.401 105.259 161.509 107.531C138.291 69.8342 173.997 62.5503 180.808 63.2442C185.955 58.8535 193.132 55.4126 198.177 54.9081C216.374 53.0878 224.613 69.1427 219.769 86.5243Z" fill="#000638"/>
<path fill-rule="evenodd" clip-rule="evenodd" d="M209.64 86.1044C210.383 86.0132 211.06 86.5422 211.152 87.2861C211.785 92.4516 212.711 100.682 211.968 109.162C211.227 117.623 208.808 126.542 202.569 132.908L201.641 131.999L202.569 132.908C196.203 139.402 188.488 139.796 182.11 136.508C175.82 133.266 170.858 126.479 169.57 118.623C169.449 117.884 169.95 117.186 170.69 117.065C171.429 116.943 172.127 117.445 172.248 118.184C173.405 125.24 177.868 131.269 183.353 134.096C188.749 136.878 195.156 136.593 200.63 131.008C206.23 125.295 208.547 117.12 209.265 108.926C209.981 100.752 209.09 92.7683 208.458 87.6163C208.367 86.8725 208.896 86.1956 209.64 86.1044Z" fill="#000638"/>
<path fill-rule="evenodd" clip-rule="evenodd" d="M161.753 105.35C162.447 105.633 162.78 106.425 162.497 107.119C161.904 108.574 161.859 111.088 163.04 113.212C164.158 115.221 166.464 117.032 170.909 117.032C171.659 117.032 172.266 117.639 172.266 118.389C172.266 119.138 171.659 119.746 170.909 119.746C165.593 119.746 162.318 117.497 160.668 114.531C159.082 111.68 159.083 108.303 159.984 106.094C160.267 105.401 161.059 105.067 161.753 105.35Z" fill="#000638"/>
<path fill-rule="evenodd" clip-rule="evenodd" d="M165.906 107.311C166.628 107.51 167.053 108.257 166.854 108.979C166.809 109.14 166.69 110.325 168.507 111.194C169.183 111.518 169.469 112.328 169.146 113.004C168.822 113.68 168.012 113.966 167.336 113.642C164.314 112.196 163.85 109.666 164.237 108.259C164.436 107.536 165.183 107.112 165.906 107.311Z" fill="#000638"/>
<path fill-rule="evenodd" clip-rule="evenodd" d="M213.895 101.028C214.64 100.947 215.311 101.484 215.392 102.229C215.84 106.31 215.495 109.723 214.556 112.344C213.62 114.957 212.05 116.887 209.998 117.742C209.306 118.03 208.511 117.703 208.223 117.011C207.935 116.319 208.262 115.525 208.954 115.237C210.088 114.764 211.233 113.573 212.001 111.429C212.766 109.294 213.111 106.315 212.695 102.525C212.613 101.78 213.15 101.11 213.895 101.028Z" fill="#000638"/>
<path fill-rule="evenodd" clip-rule="evenodd" d="M197.891 121.186C198.37 121.763 198.29 122.619 197.713 123.097C197.228 123.499 196.866 123.921 196.535 124.353C196.453 124.46 196.362 124.583 196.265 124.714C196.024 125.04 195.748 125.414 195.487 125.702C195.067 126.166 194.516 126.624 193.723 126.843C192.954 127.055 192.121 126.996 191.208 126.758C190.483 126.569 190.049 125.828 190.238 125.103C190.427 124.377 191.168 123.943 191.893 124.132C192.542 124.301 192.856 124.267 193.002 124.227C193.125 124.193 193.258 124.121 193.475 123.881C193.645 123.693 193.786 123.502 193.974 123.245C194.087 123.092 194.218 122.915 194.382 122.7C194.778 122.184 195.28 121.589 195.98 121.008C196.557 120.53 197.413 120.61 197.891 121.186Z" fill="#000638"/>
<path d="M200.874 108.524C201.999 108.524 202.911 107.613 202.911 106.489C202.911 105.364 201.999 104.453 200.874 104.453C199.749 104.453 198.837 105.364 198.837 106.489C198.837 107.613 199.749 108.524 200.874 108.524Z" fill="#000638"/>
<path d="M182.949 108.795C184.074 108.795 184.986 107.884 184.986 106.76C184.986 105.636 184.074 104.724 182.949 104.724C181.824 104.724 180.912 105.636 180.912 106.76C180.912 107.884 181.824 108.795 182.949 108.795Z" fill="#000638"/>
<path fill-rule="evenodd" clip-rule="evenodd" d="M184.507 100.601C181.297 99.9893 180.042 101.827 179.799 102.543C179.558 103.252 178.787 103.632 178.077 103.391C177.368 103.15 176.988 102.379 177.229 101.669C177.843 99.8626 180.287 97.0341 185.015 97.9354C185.751 98.0758 186.234 98.7863 186.094 99.5225C185.953 100.259 185.243 100.742 184.507 100.601Z" fill="#000638"/>
<path fill-rule="evenodd" clip-rule="evenodd" d="M202.979 100.764C200.913 99.2742 199.041 100.147 198.414 100.689C197.847 101.18 196.99 101.118 196.5 100.552C196.009 99.9849 196.071 99.128 196.638 98.6375C197.904 97.5416 201.18 96.1204 204.566 98.563C205.174 99.0014 205.311 99.8495 204.873 100.457C204.434 101.065 203.586 101.202 202.979 100.764Z" fill="#000638"/>
<path fill-rule="evenodd" clip-rule="evenodd" d="M191.114 104.015C191.858 104.103 192.39 104.777 192.302 105.522C192.15 106.814 192.025 108.753 192.133 110.371C192.188 111.192 192.297 111.839 192.446 112.259C192.486 112.373 192.521 112.448 192.546 112.496C193.162 112.713 193.548 113.351 193.429 114.015C193.297 114.752 192.592 115.243 191.854 115.111C190.662 114.897 190.126 113.84 189.887 113.164C189.616 112.397 189.486 111.462 189.425 110.552C189.302 108.709 189.444 106.591 189.607 105.203C189.695 104.459 190.37 103.927 191.114 104.015ZM192.591 112.566C192.591 112.567 192.587 112.562 192.578 112.55C192.588 112.559 192.592 112.565 192.591 112.566Z" fill="#000638"/>
<path fill-rule="evenodd" clip-rule="evenodd" d="M294.584 185.853C294.88 185.164 295.678 184.846 296.366 185.141C318.668 194.711 332.569 205.575 342.004 214.866L342.043 214.904L342.079 214.946C345.822 219.278 348.167 222.995 349.224 226.177C350.295 229.399 350.075 232.193 348.502 234.424C346.979 236.584 344.366 237.957 341.224 238.81C338.056 239.67 334.162 240.054 329.822 240.088C312.501 240.225 287.001 234.786 268.853 229.76C268.131 229.56 267.707 228.813 267.907 228.09C268.107 227.368 268.855 226.945 269.577 227.145C287.687 232.16 312.88 237.508 329.801 237.374C334.022 237.341 337.659 236.966 340.513 236.191C343.391 235.409 345.289 234.272 346.283 232.861C347.227 231.522 347.53 229.685 346.649 227.032C345.756 224.347 343.683 220.959 340.061 216.761C330.849 207.697 317.234 197.049 295.296 187.635C294.608 187.339 294.289 186.542 294.584 185.853Z" fill="#000638"/>
<path fill-rule="evenodd" clip-rule="evenodd" d="M252.759 125.52C264.574 118.354 296.91 105.073 332.371 108.912C341.181 109.866 346.315 112.513 347.774 116.914C348.492 119.081 348.218 121.436 347.342 123.797C346.467 126.158 344.953 128.63 343.029 131.122C335.368 141.048 320.485 152.211 309.192 159.439C308.561 159.843 307.722 159.659 307.318 159.028C306.914 158.397 307.098 157.558 307.729 157.154C318.979 149.953 333.523 138.998 340.881 129.464C342.712 127.091 344.052 124.864 344.798 122.853C345.543 120.843 345.657 119.155 345.198 117.768C344.3 115.06 340.814 112.556 332.079 111.611C297.36 107.851 265.618 120.895 254.166 127.84C253.525 128.229 252.691 128.025 252.302 127.384C251.914 126.743 252.118 125.909 252.759 125.52Z" fill="#000638"/>
<path fill-rule="evenodd" clip-rule="evenodd" d="M189.277 44.7738C206.013 27.6054 222.944 21.6676 237.952 27.8089C244.371 30.4354 247.245 37.0234 247.969 45.2599C248.697 53.5356 247.31 63.9112 244.769 74.8853C239.682 96.8598 229.864 121.656 222.373 137.783C222.058 138.463 221.251 138.758 220.571 138.442C219.891 138.126 219.596 137.319 219.912 136.64C227.359 120.607 237.096 95.9983 242.126 74.2732C244.643 63.3975 245.956 53.3497 245.266 45.4975C244.572 37.6062 241.913 32.3619 236.925 30.3206C223.415 24.7924 207.619 29.8456 191.22 46.6681C174.838 63.4739 158.149 91.7738 143.107 131.853C142.844 132.555 142.062 132.91 141.36 132.647C140.659 132.384 140.303 131.601 140.567 130.9C155.672 90.6495 172.525 61.9588 189.277 44.7738Z" fill="#000638"/>
<path fill-rule="evenodd" clip-rule="evenodd" d="M44.9003 82.3645C66.9884 87.4948 92.5121 99.1534 109.266 108.318C109.924 108.678 110.165 109.502 109.806 110.16C109.446 110.817 108.621 111.059 107.964 110.699C91.3121 101.59 66.0338 90.0592 44.2864 85.008C33.3903 82.4772 23.5506 81.6152 16.1652 83.3688C12.4943 84.2404 9.48937 85.7443 7.24808 87.955C5.01688 90.1558 3.46178 93.1359 2.80978 97.1088C1.50899 105.035 4.47654 112.744 10.4385 120.107C16.4066 127.478 25.2812 134.376 35.4903 140.583C55.9005 152.992 81.3346 162.456 98.5313 167.365C99.2519 167.571 99.6693 168.322 99.4636 169.043C99.2578 169.763 98.5069 170.181 97.7863 169.975C80.445 165.024 54.7648 155.478 34.0804 142.902C23.7421 136.616 14.5743 129.527 8.32939 121.815C2.07835 114.095 -1.33772 105.623 0.131761 96.6693C0.864892 92.2021 2.65296 88.6756 5.34232 86.0229C8.02157 83.3802 11.5146 81.6838 15.5383 80.7284C23.5422 78.8279 33.8786 79.8046 44.9003 82.3645Z" fill="#000638"/>
<path fill-rule="evenodd" clip-rule="evenodd" d="M108.236 185.772C108.576 186.44 108.31 187.257 107.643 187.597C83.2491 200.022 55.9187 214.755 38.9121 228.577C30.3603 235.528 24.6827 242.044 23.077 247.728C22.2945 250.498 22.4892 253.032 23.769 255.379C25.0699 257.765 27.5692 260.097 31.6606 262.262L31.0261 263.461L31.6606 262.262C34.893 263.972 39.4993 265.043 44.9503 265.542C50.3774 266.04 56.5341 265.963 62.7936 265.45C75.334 264.423 88.1228 261.662 96.1035 258.405C96.7974 258.122 97.5894 258.455 97.8725 259.149C98.1556 259.843 97.8226 260.635 97.1287 260.918C88.8137 264.311 75.7331 267.113 63.0152 268.155C56.6455 268.677 50.3258 268.761 44.7025 268.245C39.103 267.731 34.0848 266.614 30.3916 264.661C26.0241 262.35 23.0308 259.694 21.3864 256.679C19.721 253.624 19.5176 250.345 20.4654 246.99C22.3203 240.425 28.6167 233.448 37.2005 226.471C54.4652 212.439 82.0528 197.586 106.411 185.179C107.079 184.839 107.896 185.104 108.236 185.772Z" fill="#000638"/>
<path d="M186.786 357.089C223.91 357.089 254.006 353.444 254.006 348.947C254.006 344.451 223.91 340.806 186.786 340.806C149.661 340.806 119.566 344.451 119.566 348.947C119.566 353.444 149.661 357.089 186.786 357.089Z" fill="#000638"/>
</g>
<ellipse cx="310.5" cy="33.0645" rx="32.5" ry="32.4383" fill="#FFAD1D"/>
<ellipse cx="14.5" cy="126.886" rx="14.5" ry="14.4725" fill="#FFAD1D"/>
<ellipse cx="347.5" cy="229.691" rx="6.5" ry="6.48767" fill="#FFAD1D"/>
<defs>
<clipPath id="clip0_1407_20703">
<rect width="349" height="349" fill="white" transform="translate(0 26)"/>
</clipPath>
</defs>
</svg>
